<svg fill="none" version="1.1" viewBox="0 0 19 17" xmlns="http://www.w3.org/2000/svg">
 <path d="m10.411 0.85053-0.53036-0.53033-1.0607 1.0607 0.53033 0.53033 1.0607-1.0607zm6.5886 7.6493 0.5304 0.53033 0.5303-0.53033-0.5303-0.53033-0.5304 0.53033zm-7.6493 6.5886-0.53033 0.5304 1.0607 1.0606 0.53036-0.5303-1.0607-1.0607zm-7.6227-7.3386h-0.75v1.5h0.75v-1.5zm13.492 1.5h0.75v-1.5h-0.75v1.5zm-5.8693-7.3387 7.119 7.119 1.0607-1.0607-7.119-7.119-1.0607 1.0607zm7.119 6.0583-7.119 7.119 1.0607 1.0607 7.119-7.119-1.0607-1.0607zm-14.742 1.2803h13.492v-1.5h-13.492v1.5z" fill="#fff"/>
</svg>
