<svg fill="none" version="1.1" viewBox="0 0 19 17" xmlns="http://www.w3.org/2000/svg">
 <path d="m9.6493 1.9112 0.53037-0.53033-1.0607-1.0607-0.53033 0.53033 1.0607 1.0607zm-7.6493 6.5887-0.53033-0.53033-0.53033 0.53033 0.53033 0.53033 0.53033-0.53033zm6.5887 7.6493 0.53033 0.5303 1.0607-1.0606-0.53037-0.5304-1.0607 1.0607zm8.6833-6.8993h0.75v-1.5h-0.75v1.5zm-13.492-1.5h-0.75v1.5h0.75v-1.5zm4.8087-6.8993-7.119 7.119 1.0607 1.0607 7.119-7.119-1.0607-1.0607zm-7.119 8.1797 7.119 7.119 1.0607-1.0607-7.119-7.119-1.0607 1.0607zm15.802-1.2803h-13.492v1.5h13.492v-1.5z" fill="#39B980"/>
</svg>
