<svg version="1.1" viewBox="0 0 72 72" xmlns="http://www.w3.org/2000/svg">
 <circle cx="36" cy="36" r="36" fill="#39B980"/>
 <path d="m49.916 36.796-21.192 12.565c0.3126-0.0108-0.2611 0.1659 0 0l-1.2237 0.6386c-0.4065 0.147-0.4065 0.147-0.4065-0.6386v-26.701c-0.011-0.3011-0.1532-1.3079 0-1.5706-0.2727 0.1475 0.1533-0.2627 0 0 0.2728-0.1475 1.3176-0.0108 1.6302 0-0.2611-0.1659 0.3126 0.0108 0 0l21.276 12.877c0.2466 0.1472 1.3589 1.2558 1.5 1.5 0-0.2795 0.1411 0.2442 0 0 0 0.2795-2.1827 1.6844-1.5842 1.3296-0.7286 0.432 0.4856-0.3676 0 0z" clip-rule="evenodd" fill="#fff" fill-rule="evenodd"/>
</svg>
