<svg width="102" height="124" viewBox="0 0 102 124" fill="none" xmlns="http://www.w3.org/2000/svg">
<path d="M69.5023 30.396H53.1221L31.2676 83.8399H45.2918L61.3122 42.5629L77.3413 83.8399H91.3565L69.5023 30.396Z" fill="white"/>
<path d="M55.3951 123.116H55.2495C43.1075 121.897 31.6063 117.111 22.2128 109.368C12.8192 101.625 5.95926 91.2768 2.5078 79.6433C-0.943652 68.0101 -0.830127 55.6186 2.83391 44.0496C6.49795 32.4806 13.5464 22.2584 23.0802 14.6871L23.2001 14.5849C32.8469 6.70128 44.5274 1.66845 56.9115 0.0595998L57.4512 0L62.737 12.9247L62.1545 12.9672C51.1738 13.6442 40.6756 17.6933 32.1099 24.5551L31.7158 24.8786L31.0818 25.398L30.919 25.5257C23.5768 31.5334 18.1968 39.5743 15.4624 48.6271C12.7281 57.6799 12.7627 67.3362 15.5621 76.3694C18.3613 85.4026 23.7989 93.4051 31.1842 99.3605C38.5694 105.316 47.569 108.956 57.0399 109.817C70.8332 110.967 84.5332 106.721 95.2233 97.9818C95.7315 97.5734 96.2281 97.1565 96.7139 96.7304L102 109.672C88.7227 119.826 72.0791 124.627 55.3951 123.116Z" fill="white"/>
</svg>
