<svg width="86" height="120" viewBox="0 0 86 120" fill="none" xmlns="http://www.w3.org/2000/svg">
<path d="M55.36 110.895C55.36 112.516 55.3806 114.029 55.36 115.539C55.3246 117.639 54.0595 118.974 51.9688 118.986C45.7801 119.018 39.5876 119.018 33.391 118.986C31.3269 118.986 30.0412 117.627 29.9822 115.527C29.9379 114.014 29.9822 112.499 29.9822 110.886C29.127 110.839 28.4016 110.821 27.6791 110.756C24.8748 110.499 22.6661 108.341 22.6484 105.534C22.6484 102.918 23.2146 100.285 23.0642 97.6867C22.9171 95.3894 22.4199 93.1281 21.5898 90.981C19.9296 86.6846 18.0511 82.4707 16.0577 78.301C15.468 77.0772 14.3032 76.1188 13.333 75.1015C12.0119 73.7155 10.6024 72.4121 9.27832 71.0291C7.70954 69.3925 7.71838 67.5701 9.29602 65.9424C10.971 64.2143 12.7226 62.56 14.3651 60.8025C14.5245 60.5961 14.6341 60.3556 14.6852 60.0999C14.7364 59.8441 14.7277 59.58 14.66 59.3281C13.7458 57.0074 12.7137 54.7338 11.6404 52.2509C9.19871 52.2509 6.55359 52.2509 3.90847 52.2509C1.26336 52.2509 0.039585 50.9888 0.0189431 48.3584C-0.00169887 45.4597 -0.0105454 42.561 0.0189431 39.6622C0.0425338 36.9198 1.2663 35.7226 3.99694 35.7196C6.59487 35.7196 9.19281 35.7196 11.6227 35.7196C12.7314 33.1866 13.8078 30.8304 14.772 28.4271C14.9077 28.088 14.6364 27.4127 14.3385 27.0972C12.7491 25.4252 11.0948 23.824 9.46115 22.1785C7.6712 20.365 7.65056 18.6134 9.44052 16.7762C11.5322 14.6334 13.6495 12.5122 15.7923 10.4126C17.5882 8.64331 19.3752 8.69344 21.2064 10.4922C22.8519 12.1082 24.4973 13.736 26.0956 15.3991C26.6205 15.9476 27.0245 16.0272 27.7381 15.694C29.9527 14.656 32.2145 13.7212 34.6944 12.642C34.6944 10.3183 34.6944 7.72327 34.6944 5.12828C34.6944 2.25905 35.9389 0.999897 38.8228 0.999897C41.7068 0.999897 44.523 0.979255 47.3745 0.999897C49.9931 1.02054 51.2286 2.28559 51.2434 4.90712C51.2434 7.16889 51.2847 9.4277 51.2434 11.6895C51.2257 12.5505 51.4557 12.9457 52.3374 13.2494C54.2833 13.9176 56.1859 14.7055 58.0346 15.6085C58.9192 16.039 59.4117 15.9034 60.0398 15.2428C61.5614 13.6387 63.1331 12.0846 64.7108 10.5247C66.66 8.61382 68.3821 8.63447 70.3372 10.5689C72.4014 12.6095 74.4508 14.6501 76.4885 16.7143C78.3226 18.5721 78.2932 20.3856 76.4442 22.2228C74.84 23.8151 73.2654 25.437 71.6376 27.0028C71.0655 27.5513 70.9269 27.9848 71.2926 28.7721C72.2038 30.7243 73.0147 32.7236 73.7696 34.7406C74.038 35.4542 74.3388 35.7462 75.1202 35.7314C77.5265 35.6842 79.9327 35.7019 82.3419 35.7314C84.5683 35.7521 85.9277 37.0525 85.9602 39.2995C86.0103 42.443 86.0162 45.5894 85.9602 48.7358C85.9189 50.9504 84.5211 52.245 82.2829 52.2745C79.9239 52.2951 77.5648 52.3128 75.2057 52.2745C74.3918 52.2538 74.0262 52.4956 73.7313 53.2918C73.0292 55.2778 72.2261 57.2266 71.325 59.1305C70.924 59.968 71.0478 60.4221 71.6701 61.0149C73.2683 62.5394 74.8194 64.117 76.3676 65.6947C78.3285 67.694 78.3462 69.3159 76.4324 71.2975C75.3767 72.3915 74.3682 73.5592 73.1887 74.5147C70.7412 76.5081 69.3316 79.106 68.2317 81.9959C67.2409 84.6056 66.0672 87.1534 64.8965 89.6924C63.4492 92.7146 62.7148 96.0286 62.7498 99.3793C62.7822 101.196 62.7704 103.012 62.7498 104.832C62.7291 108.559 60.5617 110.729 56.7902 110.815C56.3567 110.815 55.9173 110.859 55.36 110.895ZM3.6932 39.2995V48.6975H5.36815C7.9248 48.6975 10.4785 48.7123 13.0352 48.6975C14.1292 48.6975 14.7013 49.2136 15.0993 50.2132C16.2985 53.2604 17.5489 56.2849 18.8503 59.2868C19.2808 60.2747 19.2543 61.0709 18.4935 61.8287C18.0777 62.2445 17.6707 62.6721 17.2432 63.079C15.4149 64.8336 13.5777 66.5823 11.9116 68.1717L18.6321 75.0219C20.6963 72.9429 22.787 70.8787 24.8246 68.7497C25.8508 67.6792 26.7768 67.7087 28.092 68.3368C30.7369 69.6073 33.4501 70.7305 36.219 71.7015C37.6492 72.1998 38.3274 72.8309 38.2832 74.4056C38.1859 77.3338 38.2537 80.2679 38.2537 83.2757H47.69C47.69 80.2472 47.749 77.3102 47.6664 74.379C47.6192 72.8043 48.3122 72.1556 49.7601 71.7044C52.1029 70.9871 54.3904 70.1001 56.6044 69.0505C59.9779 67.4227 59.9041 67.3549 62.5021 70.1179C64.0974 71.8253 65.7989 73.4354 67.2704 74.9039L74.1087 68.4165C71.9944 66.3198 69.9391 64.2881 67.8926 62.2504C66.5243 60.888 66.601 60.4811 67.3942 58.7767C68.6121 56.1669 69.715 53.4923 70.694 50.7823C71.3368 49.013 71.5521 48.6828 73.4895 48.6798C76.3794 48.6798 79.2692 48.6798 82.2535 48.6798V39.2995H73.5514C71.5196 39.2995 71.3191 39.0046 70.6497 37.1321C69.7236 34.5025 68.6615 31.9227 67.4679 29.4032C66.5332 27.4511 66.4447 27.1208 68.0046 25.5697C70.0157 23.5704 72.0328 21.577 73.9525 19.672C71.6641 17.3984 69.5292 15.2694 67.2173 12.987C65.392 14.8506 63.4781 16.8205 61.5525 18.7638C59.7655 20.5744 59.6152 20.4859 57.3888 19.3535C55.2075 18.2406 52.9487 17.2866 50.63 16.499C47.6812 15.5171 47.6546 15.6321 47.6546 12.4562V4.7007H38.2508C38.2508 7.74391 38.1918 10.6839 38.2743 13.621C38.3186 15.1927 37.6285 15.8356 36.1807 16.3015C33.6566 17.0944 31.1928 18.0681 28.8085 19.2149C26.1546 20.5213 26.1811 20.6599 24.0668 18.4925C22.2238 16.6052 20.4073 14.6973 18.7589 12.9929L11.9146 19.7074C13.9788 21.7244 16.043 23.8151 18.172 25.8321C19.2484 26.8495 19.2661 27.7784 18.6203 29.0936C17.3712 31.5865 16.2742 34.1528 15.3353 36.7783C14.5037 39.1668 14.5538 39.3025 11.9854 39.3025L3.6932 39.2995ZM58.8367 97.0645C59.6889 94.2425 60.3553 91.4823 61.3609 88.849C62.5404 85.738 64.0414 82.7478 65.3418 79.6811C65.5394 79.221 65.6367 78.3983 65.392 78.1241C63.5519 76.1572 61.6204 74.2699 59.6741 72.4062C59.5198 72.2719 59.3364 72.1753 59.1383 72.1241C58.9403 72.073 58.733 72.0686 58.5329 72.1114C56.1149 73.1376 53.7322 74.2434 51.2316 75.3757C51.2316 77.8321 51.2316 80.4301 51.2316 83.028C51.2316 85.6259 50.052 86.9028 47.5308 86.9558C44.4876 87.0207 41.4404 87.0207 38.3893 86.9558C35.933 86.9087 34.7062 85.6082 34.6856 83.1636C34.665 80.8576 34.6443 78.5487 34.7033 76.2427C34.7269 75.3433 34.3848 74.9806 33.5621 74.6828C31.5864 73.9632 29.6313 73.17 27.7263 72.2853C27.0068 71.9521 26.6058 72.017 26.0779 72.5596C24.4325 74.2434 22.7723 75.9183 21.0472 77.5195C20.2746 78.2391 20.2598 78.8259 20.6373 79.7902C22.8578 85.4696 26.2784 90.7186 26.7384 97.0645H58.8367ZM26.1693 101.04C26.1693 102.361 26.1546 103.531 26.1693 104.699C26.1959 106.521 26.8358 107.176 28.6699 107.191C31.666 107.211 34.662 107.191 37.658 107.191C43.9951 107.191 50.3381 107.191 56.6693 107.191C57.8812 107.191 58.9428 106.866 59.0932 105.578C59.2701 104.103 59.1345 102.585 59.1345 101.028L26.1693 101.04ZM51.7093 111.154H33.6476V115.418H51.7093V111.154Z" fill="#39B980"/>
<path d="M43.0137 20.6155C47.6406 20.6225 52.1613 22.0025 56.0033 24.5807C59.8453 27.1589 62.8358 30.8192 64.596 35.0982C66.3562 39.3772 66.8069 44.0823 65.8911 48.6176C64.9753 53.1529 62.7342 57.3145 59.4516 60.5752C56.169 63.8359 51.9925 66.0491 47.4511 66.9345C42.9098 67.8199 38.2078 67.3376 33.9407 65.5488C29.6736 63.76 26.0334 60.7451 23.481 56.8859C20.9286 53.0267 19.5789 48.4969 19.6029 43.8701C19.6102 40.8051 20.2219 37.7717 21.4029 34.9435C22.5839 32.1152 24.3111 29.5476 26.4856 27.3877C28.6601 25.2277 31.2392 23.5177 34.0753 22.3557C36.9114 21.1936 39.9488 20.6023 43.0137 20.6155ZM42.943 24.216C37.7373 24.2756 32.7648 26.3843 29.1034 30.0851C25.4419 33.786 23.3865 38.7807 23.3826 43.9867C23.3787 49.1927 25.4267 54.1905 29.0826 57.8968C32.7386 61.6031 37.7079 63.7193 42.9135 63.7866C53.9687 63.8072 62.7622 54.94 62.7386 43.7875C62.7003 32.9829 53.836 24.2071 42.943 24.216Z" fill="#39B980"/>
</svg>
