<svg width="129" height="30" viewBox="0 0 129 30" fill="none" xmlns="http://www.w3.org/2000/svg">
<path d="M41.0241 8.41112C41.9002 8.39831 42.7688 8.57402 43.5711 8.92635C44.3733 9.27867 45.0904 9.79937 45.6738 10.4532L44.0892 11.9152C43.6867 11.5163 43.2082 11.2023 42.682 10.9918C42.1558 10.7813 41.5927 10.6787 41.0261 10.69C40.5165 10.6777 40.0099 10.7716 39.5384 10.9657C39.067 11.1597 38.6411 11.4497 38.2878 11.8172C37.9191 12.1991 37.6313 12.6515 37.4418 13.1473C37.2523 13.6432 37.165 14.1722 37.1851 14.7026C37.1851 15.8775 37.552 16.8372 38.2857 17.5819C38.6401 17.9474 39.0664 18.2356 39.5377 18.4282C40.009 18.6207 40.5151 18.7136 41.0241 18.7009C41.5913 18.7167 42.1557 18.6162 42.6825 18.4054C43.2093 18.1947 43.6873 17.8783 44.0871 17.4757L45.6718 18.9378C45.0885 19.5917 44.3714 20.1124 43.5691 20.4648C42.7669 20.8171 41.8982 20.9928 41.0221 20.9798C40.1956 20.9941 39.3751 20.8383 38.6114 20.5221C37.8477 20.206 37.1572 19.7362 36.5827 19.142C35.9895 18.565 35.5205 17.8728 35.2045 17.108C34.8884 16.3432 34.732 15.5219 34.7449 14.6944C34.732 13.867 34.8884 13.0457 35.2045 12.2809C35.5205 11.5161 35.9895 10.8239 36.5827 10.2469C37.1576 9.65279 37.8486 9.18325 38.6126 8.86744C39.3767 8.55163 40.1975 8.39631 41.0241 8.41112Z" fill="#12263F"/>
<path d="M50.6229 11.9336C51.2175 11.9334 51.8063 12.0503 52.3557 12.2777C52.9051 12.5051 53.4043 12.8386 53.8247 13.259C54.2452 13.6795 54.5786 14.1786 54.806 14.728C55.0335 15.2774 55.1504 15.8662 55.1501 16.4608C55.1475 17.2027 54.9622 17.9326 54.6105 18.5859C54.2589 19.2391 53.7517 19.7957 53.1339 20.2065C52.5161 20.6172 51.8065 20.8695 51.0681 20.9409C50.3296 21.0123 49.5849 20.9008 48.8998 20.6161C48.2147 20.3314 47.6103 19.8823 47.1399 19.3085C46.6696 18.7347 46.3478 18.0539 46.203 17.3263C46.0583 16.5986 46.095 15.8465 46.3099 15.1364C46.5248 14.4263 46.9114 13.7801 47.4353 13.2548C47.8482 12.8285 48.3441 12.4913 48.8923 12.2641C49.4405 12.0369 50.0295 11.9244 50.6229 11.9336ZM52.2178 14.7598C52.009 14.5496 51.7607 14.3827 51.4871 14.2689C51.2136 14.155 50.9202 14.0964 50.624 14.0964C50.3277 14.0964 50.0343 14.155 49.7608 14.2689C49.4872 14.3827 49.2389 14.5496 49.0302 14.7598C48.8054 14.9804 48.6291 15.2454 48.5124 15.5379C48.3956 15.8304 48.3411 16.144 48.3522 16.4588C48.3398 16.7717 48.393 17.0838 48.5083 17.375C48.6237 17.6662 48.7986 17.93 49.022 18.1496C49.4493 18.5674 50.0232 18.8013 50.6209 18.8013C51.2186 18.8013 51.7925 18.5674 52.2198 18.1496C52.4446 17.9307 52.6211 17.6672 52.7379 17.376C52.8546 17.0848 52.9091 16.7723 52.8978 16.4588C52.9083 16.1442 52.8533 15.8309 52.7362 15.5388C52.6192 15.2466 52.4426 14.9821 52.2178 14.7618V14.7598Z" fill="#12263F"/>
<path d="M67.3819 11.9337C68.6262 11.9337 69.5791 12.3183 70.2407 13.0874C70.9023 13.8566 71.2311 14.8987 71.227 16.2138V20.8635H68.9808V16.3547C68.9808 14.8572 68.3294 14.1085 67.0266 14.1085C66.3568 14.1085 65.8401 14.3127 65.4767 14.7211C65.1132 15.1295 64.9314 15.7421 64.9314 16.5589V20.8737H62.6852V16.3547C62.6852 14.8572 62.0338 14.1085 60.731 14.1085C60.0612 14.1085 59.5446 14.3127 59.1811 14.7211C58.8176 15.1295 58.6359 15.7421 58.6359 16.5589V20.8737H56.3896V12.0481H57.8865L58.0457 13.4223C58.657 12.4245 59.6671 11.9255 61.0761 11.9255C62.5736 11.9255 63.6184 12.4953 64.2106 13.6347C64.4838 13.0913 64.921 12.6477 65.4603 12.3666C66.0546 12.0641 66.7153 11.9152 67.3819 11.9337Z" fill="#12263F"/>
<path d="M77.3875 11.952C77.9616 11.9373 78.5321 12.0461 79.0605 12.2708C79.5889 12.4956 80.063 12.8311 80.4506 13.2548C81.2641 14.1211 81.7042 15.2727 81.6758 16.4608C81.7031 17.6511 81.2633 18.8048 80.4506 19.675C80.0645 20.1012 79.591 20.4392 79.0624 20.6658C78.5338 20.8924 77.9625 21.0023 77.3875 20.988C76.9514 21.0026 76.5174 20.922 76.1157 20.7516C75.714 20.5813 75.3543 20.3253 75.0617 20.0017V24.0959H72.8154V12.048H74.3245L74.447 13.2977C74.7972 12.8584 75.2458 12.5077 75.7567 12.2739C76.2675 12.0401 76.8262 11.9298 77.3875 11.952ZM77.1833 14.1186C76.8788 14.1182 76.5774 14.179 76.2969 14.2974C76.0164 14.4159 75.7626 14.5895 75.5505 14.808C75.3385 15.0265 75.1726 15.2855 75.0626 15.5694C74.9527 15.8533 74.901 16.1565 74.9106 16.4608C74.8993 16.7756 74.9538 17.0892 75.0705 17.3817C75.1873 17.6742 75.3637 17.9392 75.5885 18.1598C75.7973 18.37 76.0456 18.5368 76.3191 18.6507C76.5927 18.7646 76.886 18.8232 77.1823 18.8232C77.4786 18.8232 77.772 18.7646 78.0455 18.6507C78.319 18.5368 78.5673 18.37 78.7761 18.1598C79.0008 17.9391 79.1772 17.6741 79.2939 17.3816C79.4106 17.0891 79.4652 16.7755 79.4541 16.4608C79.4665 16.1479 79.4133 15.8358 79.2979 15.5446C79.1826 15.2534 79.0076 14.9896 78.7843 14.77C78.5746 14.5598 78.3249 14.3938 78.0499 14.2819C77.7749 14.17 77.4802 14.1145 77.1833 14.1186Z" fill="#12263F"/>
<path d="M83.0479 20.8656V8.53589H85.2941V20.8656H83.0479Z" fill="#12263F"/>
<path d="M88.4151 11.2658C88.0756 11.2749 87.7451 11.1553 87.4901 10.9309C87.3712 10.8282 87.2759 10.701 87.2105 10.5581C87.1452 10.4153 87.1113 10.26 87.1113 10.1029C87.1113 9.94574 87.1452 9.79046 87.2105 9.64758C87.2759 9.5047 87.3712 9.37757 87.4901 9.27482C87.7452 9.05061 88.0756 8.93101 88.4151 8.93992C88.7605 8.92877 89.0974 9.04837 89.3585 9.27482C89.4774 9.37757 89.5727 9.5047 89.6381 9.64758C89.7035 9.79046 89.7373 9.94574 89.7373 10.1029C89.7373 10.26 89.7035 10.4153 89.6381 10.5581C89.5727 10.701 89.4774 10.8282 89.3585 10.9309C89.0976 11.1575 88.7606 11.2771 88.4151 11.2658ZM87.3063 20.8633V12.0479H89.5525V20.8552L87.3063 20.8633Z" fill="#12263F"/>
<path d="M99.8493 20.8655H98.3525L98.23 19.6158C97.5139 20.5197 96.5392 20.9717 95.3058 20.9717C94.7303 20.9861 94.1584 20.8773 93.6283 20.6526C93.0983 20.4279 92.6224 20.0925 92.2326 19.6689C91.4171 18.8038 90.9767 17.6514 91.0074 16.4629C90.9779 15.2722 91.418 14.1177 92.2326 13.2488C92.621 12.8227 93.0963 12.4849 93.6266 12.2584C94.1568 12.0319 94.7294 11.9218 95.3058 11.9357C96.5392 11.9357 97.5139 12.3938 98.23 13.31L98.3525 12.0603H99.8493V20.8655ZM95.5182 18.8031C95.8227 18.8035 96.1241 18.7427 96.4046 18.6243C96.6851 18.5058 96.9389 18.3322 97.151 18.1137C97.363 17.8952 97.5289 17.6362 97.6389 17.3523C97.7488 17.0684 97.8006 16.7652 97.791 16.4609C97.8021 16.1461 97.7475 15.8325 97.6308 15.54C97.5141 15.2475 97.3378 14.9825 97.113 14.7619C96.9042 14.5517 96.6559 14.3848 96.3824 14.271C96.1089 14.1571 95.8155 14.0985 95.5192 14.0985C95.2229 14.0985 94.9296 14.1571 94.656 14.271C94.3825 14.3848 94.1342 14.5517 93.9254 14.7619C93.7007 14.9825 93.5243 15.2475 93.4076 15.54C93.2909 15.8325 93.2364 16.1461 93.2475 16.4609C93.2351 16.7738 93.2882 17.0859 93.4036 17.3771C93.5189 17.6683 93.6939 17.9321 93.9172 18.1517C94.1268 18.362 94.3766 18.528 94.6516 18.6399C94.9266 18.7518 95.2213 18.8073 95.5182 18.8031Z" fill="#12263F"/>
<path d="M106.35 11.9336C107.594 11.9336 108.547 12.3182 109.209 13.0873C109.87 13.8565 110.199 14.8986 110.195 16.2137V20.8634H107.949V16.3546C107.949 14.8571 107.297 14.1084 105.995 14.1084C105.325 14.1084 104.808 14.3126 104.445 14.721C104.081 15.1294 103.9 15.742 103.9 16.5588V20.8736H101.653V12.0479H103.15L103.309 13.4222C103.927 12.4312 104.941 11.935 106.35 11.9336Z" fill="#12263F"/>
<path d="M115.897 11.952C116.561 11.9373 117.22 12.0759 117.822 12.3571C118.424 12.6383 118.953 13.0545 119.368 13.5734L118.024 15.0171C117.458 14.4504 116.693 14.1279 115.892 14.1186C115.595 14.1141 115.3 14.1694 115.025 14.2813C114.749 14.3932 114.499 14.5594 114.289 14.77C114.066 14.9895 113.891 15.2534 113.776 15.5446C113.66 15.8358 113.607 16.1478 113.62 16.4608C113.607 16.7737 113.66 17.0858 113.776 17.377C113.891 17.6682 114.066 17.932 114.289 18.1516C114.499 18.3621 114.749 18.5283 115.025 18.6402C115.3 18.7522 115.595 18.8075 115.892 18.803C116.693 18.7937 117.458 18.4712 118.024 17.9045L119.362 19.3482C118.769 20.0607 117.97 20.5731 117.076 20.8155C116.181 21.058 115.233 21.0187 114.361 20.7031C113.49 20.3874 112.737 19.8108 112.204 19.0517C111.672 18.2925 111.387 17.3878 111.388 16.4608C111.386 15.8681 111.501 15.2808 111.727 14.7328C111.952 14.1848 112.284 13.6869 112.704 13.2678C113.123 12.8487 113.621 12.5166 114.169 12.2908C114.717 12.065 115.304 11.9498 115.897 11.952Z" fill="#12263F"/>
<path d="M124.475 11.9336C126.343 11.9336 127.636 12.7259 128.355 14.3105C128.539 14.7554 128.637 15.2316 128.643 15.7134C128.676 16.1747 128.622 16.6383 128.483 17.0795H122.337C122.326 17.3389 122.377 17.5972 122.485 17.833C122.594 18.0688 122.757 18.2753 122.962 18.4354C123.409 18.7747 123.959 18.9492 124.52 18.9296C125.441 18.9423 126.352 18.7321 127.174 18.317L128.355 19.6034C127.121 20.5196 125.842 20.9777 124.516 20.9777C123.19 20.9777 122.115 20.5496 121.291 19.6933C120.876 19.2662 120.552 18.7598 120.337 18.2043C120.122 17.6489 120.022 17.0559 120.041 16.4608C120.008 15.2638 120.448 14.102 121.267 13.2282C122.066 12.3651 123.135 11.9336 124.475 11.9336ZM124.475 13.9756C123.951 13.9593 123.44 14.1417 123.045 14.4861C122.868 14.6303 122.722 14.8095 122.616 15.0125C122.511 15.2156 122.448 15.4382 122.433 15.6664H126.466C126.47 15.4164 126.399 15.1709 126.262 14.9619C125.903 14.3057 125.308 13.9777 124.475 13.9777V13.9756Z" fill="#12263F"/>
<path d="M21.4506 27.6797C19.8051 28.5331 18.0124 29.066 16.1679 29.25L18.7102 24.8923C19.0655 24.7562 19.416 24.5969 19.7618 24.4145C21.7943 23.361 23.4492 21.7019 24.4976 19.6668C25.5461 17.6318 25.9363 15.3212 25.6143 13.0547C25.4428 11.8341 25.0658 10.6514 24.4993 9.55669C24.4136 9.38924 24.3217 9.22384 24.2257 9.06252C23.0347 7.00718 21.2079 5.39465 19.0206 4.46796L14.1932 12.7382H21.5445L14.0258 25.6254L12.0144 29.0744C9.55522 28.619 7.2532 27.5429 5.32674 25.948C3.45464 24.3982 1.99595 22.4084 1.08118 20.1567C0.166416 17.905 -0.175893 15.4617 0.0848821 13.0453C0.345658 10.6289 1.20138 8.31491 2.5755 6.31025C3.94961 4.30558 5.79924 2.67283 7.95891 1.55807C9.56552 0.723761 11.3132 0.195428 13.113 0L10.5462 4.40261C10.2399 4.52922 9.93355 4.66807 9.63746 4.82327C7.62879 5.86399 5.98829 7.49661 4.9379 9.50024C3.88751 11.5039 3.47793 13.7818 3.76459 16.0258C3.92363 17.3013 4.3066 18.5387 4.89587 19.6811C4.96734 19.8199 5.04085 19.9567 5.11845 20.0895C6.29289 22.1554 8.10568 23.7848 10.2848 24.733L15.1448 16.4138H7.79351L15.2653 3.60622L17.2828 0.134774C20.308 0.674756 23.0879 2.14906 25.232 4.35049C27.376 6.55193 28.7764 9.36984 29.2363 12.4082C29.6962 15.4466 29.1925 18.5527 27.796 21.2901C26.3995 24.0274 24.1804 26.2584 21.4506 27.6695V27.6797Z" fill="#2C7BE5"/>
</svg>
