<svg width="95" height="31" viewBox="0 0 95 31" fill="none" xmlns="http://www.w3.org/2000/svg">
<g clip-path="url(#clip0_473_1209)">
<path d="M43.3138 7.53212C44.2592 7.51851 45.1965 7.70842 46.0621 8.08894C46.9276 8.46947 47.7012 9.03172 48.3304 9.73754L46.6209 11.314C46.1854 10.8854 45.6684 10.5485 45.1003 10.3234C44.5322 10.0982 43.9247 9.98945 43.3138 10.0035C42.7639 9.98997 42.2173 10.0911 41.7086 10.3004C41.1999 10.5096 40.7404 10.8225 40.3592 11.2191C39.9634 11.6294 39.6542 12.1151 39.4501 12.6474C39.246 13.1796 39.1511 13.7475 39.171 14.3172C39.171 15.5835 39.5671 16.619 40.3592 17.4238C40.7416 17.8181 41.2016 18.1289 41.7101 18.3367C42.2186 18.5445 42.7647 18.6447 43.3138 18.631C43.9253 18.6498 44.5342 18.5432 45.1029 18.3178C45.6717 18.0924 46.1883 17.753 46.6209 17.3204L48.3304 18.8969C47.7014 19.6031 46.9279 20.1658 46.0624 20.5467C45.1968 20.9276 44.2594 21.1178 43.3138 21.1044C42.4221 21.1194 41.5369 20.9508 40.7131 20.6092C39.8893 20.2675 39.1446 19.7601 38.5252 19.1185C37.886 18.4956 37.381 17.7485 37.0413 16.9232C36.7016 16.0978 36.5343 15.2117 36.5498 14.3193C36.5343 13.427 36.7016 12.5408 37.0413 11.7155C37.381 10.8902 37.886 10.1431 38.5252 9.52016C39.1445 8.87826 39.8892 8.37054 40.7129 8.02854C41.5367 7.68655 42.422 7.51757 43.3138 7.53212Z" fill="black"/>
<path d="M55.5706 13.6713H54.6019C53.7408 13.6713 53.0823 13.9408 52.6265 14.4796C52.1706 15.0185 51.942 15.7494 51.9406 16.6724V20.9672H49.5283V11.4701H51.1428L51.4087 13.5215C52.1812 12.0653 53.4355 11.3372 55.1717 11.3372H55.5706V13.6713Z" fill="black"/>
<path d="M60.6064 11.333C62.6212 11.333 64.0148 12.1884 64.7873 13.8993C64.9899 14.3765 65.0995 14.8879 65.1102 15.4062C65.1475 15.905 65.0895 16.4064 64.9392 16.8835H58.3082C58.2962 17.1634 58.3512 17.4422 58.4687 17.6966C58.5862 17.951 58.7627 18.1736 58.9835 18.346C59.4679 18.7131 60.0645 18.901 60.6719 18.8779C61.6625 18.8884 62.6412 18.6604 63.5252 18.2131L64.7915 19.5997C63.4619 20.5845 62.0809 21.077 60.6487 21.077C59.2164 21.077 58.0507 20.6176 57.1516 19.6988C56.2526 18.7801 55.8031 17.6179 55.8031 16.2124C55.7638 14.923 56.2347 13.6702 57.1136 12.7259C57.9986 11.7973 59.1629 11.333 60.6064 11.333ZM60.6064 13.5384C60.0389 13.519 59.4852 13.7159 59.0574 14.0893C58.8674 14.2444 58.7112 14.4368 58.5983 14.6545C58.4854 14.8723 58.4183 15.1109 58.401 15.3555H62.7528C62.7551 15.0851 62.6756 14.8203 62.5249 14.5958C62.145 13.8909 61.5055 13.5384 60.6064 13.5384Z" fill="black"/>
<path d="M75.2382 20.9672H73.6237L73.4908 19.6271C72.7183 20.6021 71.6666 21.0896 70.3356 21.0896C69.7147 21.1053 69.0977 20.9879 68.5258 20.7455C67.954 20.5031 67.4406 20.1412 67.0201 19.6841C66.14 18.7509 65.665 17.5073 65.699 16.225C65.6671 14.9406 66.1417 13.6952 67.0201 12.7576C67.4392 12.298 67.9521 11.9337 68.5241 11.6894C69.0961 11.4451 69.7138 11.3265 70.3356 11.3415C70.8031 11.3208 71.2693 11.4049 71.7001 11.5874C72.131 11.77 72.5156 12.0465 72.826 12.3967V7.66504H75.2382V20.9672ZM70.5636 18.7449C70.8926 18.7454 71.2183 18.6796 71.5213 18.5515C71.8243 18.4234 72.0984 18.2355 72.3273 17.9992C72.5561 17.7628 72.7351 17.4828 72.8534 17.1758C72.9717 16.8689 73.027 16.5412 73.0159 16.2124C73.0279 15.8726 72.969 15.534 72.8429 15.2183C72.7168 14.9025 72.5263 14.6165 72.2836 14.3784C72.0578 14.1524 71.7897 13.9731 71.4945 13.8507C71.1994 13.7284 70.8831 13.6654 70.5636 13.6654C70.2441 13.6654 69.9277 13.7284 69.6326 13.8507C69.3375 13.9731 69.0693 14.1524 68.8436 14.3784C68.6008 14.6165 68.4103 14.9025 68.2843 15.2183C68.1582 15.534 68.0992 15.8726 68.1112 16.2124C68.0985 16.5498 68.156 16.8861 68.2803 17.2C68.4045 17.5139 68.5928 17.7986 68.833 18.0358C69.059 18.2642 69.3287 18.4447 69.6261 18.5666C69.9234 18.6884 70.2423 18.7491 70.5636 18.7449Z" fill="black"/>
<path d="M78.564 10.6113C78.1976 10.6213 77.841 10.4924 77.5657 10.2504C77.4375 10.1397 77.3347 10.0026 77.2642 9.84856C77.1937 9.69451 77.1572 9.52709 77.1572 9.35769C77.1572 9.18828 77.1937 9.02086 77.2642 8.86682C77.3347 8.71277 77.4375 8.57572 77.5657 8.46497C77.8411 8.22318 78.1976 8.09429 78.564 8.10408C78.9364 8.09177 79.2998 8.22067 79.5812 8.46497C79.7094 8.57572 79.8122 8.71277 79.8827 8.86682C79.9532 9.02086 79.9897 9.18828 79.9897 9.35769C79.9897 9.52709 79.9532 9.69451 79.8827 9.84856C79.8122 10.0026 79.7094 10.1397 79.5812 10.2504C79.2998 10.4947 78.9364 10.6236 78.564 10.6113ZM77.3673 20.9673V11.4703H79.7754V20.9673H77.3673Z" fill="black"/>
<path d="M84.8914 13.8045V20.9673H82.4602V13.8045H81.2256V11.4661H82.4602V8.27295H84.8936V11.4661H86.1282V13.8045H84.8914Z" fill="black"/>
<path d="M90.7058 11.333H90.8578C91.6342 11.3343 92.4016 11.4997 93.1096 11.8184C93.7768 12.0979 94.3621 12.5424 94.8106 13.11L93.4431 14.3763C93.1134 14.0203 92.7071 13.7439 92.2549 13.568C91.8207 13.3733 91.3524 13.2664 90.8767 13.2535H90.7248C90.3559 13.2492 89.9923 13.3408 89.6696 13.5194C89.5475 13.5866 89.4461 13.6857 89.3762 13.8062C89.3063 13.9267 89.2705 14.0639 89.2728 14.2032C89.2687 14.3249 89.2998 14.4451 89.3623 14.5495C89.4248 14.6539 89.5161 14.7381 89.6252 14.792C90.0141 14.9553 90.4298 15.0455 90.8514 15.0579L91.4972 15.1339C93.8412 15.2985 95.0132 16.2834 95.0132 18.0886C95.0177 18.5028 94.9245 18.9122 94.7411 19.2836C94.5578 19.6551 94.2895 19.9781 93.958 20.2265C93.2545 20.7892 92.3294 21.0706 91.1828 21.0706H91.0878C90.1825 21.0768 89.2848 20.9054 88.4455 20.5662C87.7253 20.3066 87.0932 19.8486 86.6221 19.2451L87.9896 17.9535C88.3489 18.3368 88.8 18.6223 89.3002 18.7829C89.8643 18.9991 90.4626 19.112 91.0667 19.1164H91.1722C92.1219 19.1164 92.5968 18.8061 92.5968 18.1856C92.6108 18.0388 92.5825 17.891 92.5152 17.7597C92.4478 17.6284 92.3443 17.5192 92.2169 17.4449C91.8199 17.2728 91.3937 17.1783 90.9612 17.1663L90.4293 17.1093C88.0417 16.9067 86.8486 15.9873 86.85 14.3509C86.8345 13.9208 86.9272 13.4937 87.1197 13.1087C87.3122 12.7238 87.5982 12.3933 87.9517 12.1476C88.7613 11.5935 89.725 11.3085 90.7058 11.333Z" fill="black"/>
<path d="M27.1788 5.85004L24.4626 8.56619C26.2188 11.0181 26.9315 14.0661 26.4446 17.0425C25.9576 20.0189 24.3107 22.6809 21.8647 24.4453C19.9189 25.8367 17.5877 26.5869 15.1956 26.5916C12.8138 26.5858 10.4925 25.8411 8.55191 24.46L5.84842 27.1804C8.77131 29.4661 12.4295 30.6034 16.1332 30.3777C19.8368 30.152 23.3299 28.579 25.9537 25.9553C28.5774 23.3315 30.1504 19.8385 30.3761 16.1348C30.6018 12.4312 29.4645 8.77293 27.1788 5.85004ZM5.06544 20.4312C3.8108 18.0041 3.46988 15.207 4.10479 12.5496C4.73971 9.89216 6.30819 7.55128 8.52447 5.95345C10.4496 4.56749 12.7589 3.81618 15.131 3.80408C17.5031 3.79197 19.82 4.51968 21.7591 5.88592L24.4816 3.16554C21.5576 0.904876 17.9098 -0.212548 14.2213 0.022467C10.5327 0.257482 7.05628 1.82882 4.4428 4.44231C1.82931 7.0558 0.25797 10.5322 0.0229553 14.2208C-0.21206 17.9093 0.905364 21.5571 3.16603 24.4811L5.88218 21.765C5.57971 21.3396 5.30682 20.8939 5.06544 20.4312Z" fill="#9F39B9"/>
<path d="M24.4629 8.56602L8.56066 24.4683C7.52264 23.7268 6.6184 22.814 5.88672 21.769L21.77 5.88574C22.8108 6.62274 23.721 7.52867 24.4629 8.56602Z" fill="#9F39B9"/>
<path d="M12.5292 12.4407C13.6419 11.328 13.6419 9.52405 12.5292 8.4114C11.4166 7.29875 9.61263 7.29875 8.49998 8.4114C7.38733 9.52405 7.38733 11.328 8.49998 12.4407C9.61263 13.5533 11.4166 13.5533 12.5292 12.4407Z" fill="#9F39B9"/>
<path d="M21.8564 21.9172C22.969 20.8046 22.969 19.0006 21.8564 17.888C20.7437 16.7753 18.9398 16.7753 17.8271 17.888C16.7145 19.0006 16.7145 20.8046 17.8271 21.9172C18.9398 23.0299 20.7437 23.0299 21.8564 21.9172Z" fill="#9F39B9"/>
</g>
<defs>
<clipPath id="clip0_473_1209">
<rect width="95" height="30.399" fill="white"/>
</clipPath>
</defs>
</svg>
