<svg width="141" height="31" viewBox="0 0 141 31" fill="none" xmlns="http://www.w3.org/2000/svg">
<path d="M15.5696 0.209309C18.5083 0.209688 21.381 1.08142 23.8243 2.71428C26.2677 4.34714 28.172 6.66782 29.2966 9.38289C30.4212 12.098 30.7154 15.0855 30.1422 17.9678C29.569 20.8501 28.154 23.4977 26.0762 25.5759C24.7033 26.9864 23.0639 28.1101 21.2531 28.8818C19.4423 29.6534 17.4963 30.0576 15.528 30.0709C13.5597 30.0842 11.6084 29.7063 9.78734 28.9592C7.9663 28.2121 6.31183 27.1107 4.92001 25.7189C3.52818 24.327 2.42674 22.6726 1.67964 20.8515C0.932533 19.0305 0.554658 17.0792 0.567953 15.1109C0.581249 13.1426 0.985451 11.1966 1.75709 9.38577C2.52872 7.57499 3.65242 5.93555 5.06292 4.56266C6.43942 3.17844 8.07678 2.08095 9.88023 1.3337C11.6837 0.586456 13.6174 0.204285 15.5696 0.209309ZM15.5696 1.34613e-05C13.5903 -0.00263644 11.63 0.385969 9.80135 1.14349C7.97275 1.90101 6.31191 3.0125 4.91432 4.41406C2.08849 7.24007 0.500977 11.0729 0.500977 15.0693C0.500977 19.0658 2.08849 22.8985 4.91432 25.7246C7.74033 28.5504 11.5731 30.1379 15.5696 30.1379C19.566 30.1379 23.3988 28.5504 26.2248 25.7246C29.0506 22.8985 30.6381 19.0658 30.6381 15.0693C30.6381 11.0729 29.0506 7.24007 26.2248 4.41406C24.8272 3.0125 23.1664 1.90101 21.3378 1.14349C19.5092 0.385969 17.5489 -0.00263644 15.5696 1.34613e-05Z" fill="#6366F1"/>
<path d="M15.5693 3.76732C17.8046 3.76732 19.9897 4.43017 21.8483 5.67205C23.7069 6.91392 25.1555 8.67905 26.011 10.7442C26.8664 12.8094 27.0902 15.0818 26.6541 17.2742C26.218 19.4666 25.1416 21.4804 23.561 23.061C21.9804 24.6416 19.9666 25.718 17.7742 26.1541C15.5818 26.5902 13.3094 26.3664 11.2442 25.511C9.17906 24.6555 7.41393 23.2069 6.17205 21.3483C4.93018 19.4897 4.26733 17.3046 4.26733 15.0693C4.27065 12.0728 5.46246 9.20007 7.58127 7.08126C9.70008 4.96245 12.5729 3.77065 15.5693 3.76732ZM15.5693 0C12.5889 0 9.67538 0.883798 7.19725 2.53963C4.71912 4.19547 2.78765 6.54897 1.64709 9.30252C0.506529 12.0561 0.208107 15.086 0.789559 18.0092C1.37101 20.9323 2.80622 23.6174 4.9137 25.7249C7.02118 27.8324 9.70627 29.2676 12.6294 29.849C15.5526 30.4305 18.5825 30.1321 21.3361 28.9915C24.0896 27.8509 26.4431 25.9195 28.099 23.4413C29.7548 20.9632 30.6386 18.0497 30.6386 15.0693C30.6386 11.0727 29.0509 7.23973 26.2249 4.41369C23.3989 1.58765 19.5659 0 15.5693 0V0Z" fill="#6366F1"/>
<path d="M17.3145 7.55933H13.3128L7.97363 20.6968H11.3977L15.3136 10.5502L19.2275 20.6968H22.6515L17.3145 7.55933Z" fill="#6366F1"/>
<path d="M15.5693 3.76732C18.5668 3.76732 21.4415 4.95806 23.561 7.07759C25.6805 9.19712 26.8713 12.0718 26.8713 15.0693C26.8713 18.0668 25.6805 20.9415 23.561 23.061C21.4415 25.1805 18.5668 26.3713 15.5693 26.3713H4.26732V15.0693C4.27065 12.0728 5.46245 9.20007 7.58126 7.08126C9.70007 4.96245 12.5728 3.77065 15.5693 3.76732ZM15.5693 0C11.5727 0 7.73973 1.58765 4.91369 4.41369C2.08765 7.23973 0.5 11.0727 0.5 15.0693L0.5 30.1386H15.5693C19.5659 30.1386 23.3988 28.5509 26.2249 25.7249C29.0509 22.8988 30.6386 19.0659 30.6386 15.0693C30.6386 11.0727 29.0509 7.23973 26.2249 4.41369C23.3988 1.58765 19.5659 0 15.5693 0V0Z" fill="#6366F1"/>
<path d="M8.03477 24.4873H2.38379V28.2546H8.03477V24.4873Z" fill="#6366F1"/>
<path d="M45.593 9.30292H47.9852V19.7677H45.593V18.4826C45.1738 18.9761 44.6504 19.3704 44.0605 19.6371C43.4706 19.9039 42.8288 20.0364 42.1815 20.0251C41.4838 20.0448 40.7902 19.9137 40.148 19.6406C39.5057 19.3675 38.93 18.9589 38.4602 18.4429C37.4835 17.3894 36.9951 16.0715 36.9951 14.4893C36.9951 12.907 37.4835 11.6087 38.4602 10.5943C38.9376 10.0906 39.5156 9.6929 40.1567 9.42715C40.7979 9.16141 41.4877 9.03351 42.1815 9.05176C42.8318 9.04669 43.4751 9.18599 44.065 9.45961C44.6549 9.73323 45.1768 10.1343 45.593 10.634V9.30292ZM44.783 12.2728C44.4928 11.9798 44.1475 11.7471 43.7669 11.5884C43.3862 11.4296 42.9779 11.3479 42.5655 11.3479C42.1531 11.3479 41.7448 11.4296 41.3642 11.5884C40.9836 11.7471 40.6382 11.9798 40.348 12.2728C39.8014 12.901 39.5003 13.7057 39.5003 14.5384C39.5003 15.3712 39.8014 16.1759 40.348 16.8041C40.6382 17.0971 40.9836 17.3298 41.3642 17.4885C41.7448 17.6473 42.1531 17.729 42.5655 17.729C42.9779 17.729 43.3862 17.6473 43.7669 17.4885C44.1475 17.3298 44.4928 17.0971 44.783 16.8041C45.3614 16.1901 45.6736 15.3723 45.6516 14.529C45.6712 13.6918 45.3589 12.8808 44.783 12.2728Z" fill="#161616"/>
<path d="M52.6502 19.774H50.1387V5.12329H52.6502V19.774Z" fill="#161616"/>
<path d="M54.9848 7.60546C54.8323 7.45907 54.7124 7.28223 54.6327 7.08643C54.553 6.89064 54.5154 6.68026 54.5223 6.46899C54.5179 6.25772 54.5566 6.04778 54.6362 5.852C54.7157 5.65623 54.8343 5.47875 54.9848 5.33042C55.2985 5.03803 55.7135 4.87893 56.1422 4.88671C56.3524 4.87749 56.5622 4.91212 56.7582 4.9884C56.9542 5.06469 57.1322 5.18095 57.2809 5.32978C57.4295 5.47862 57.5455 5.65678 57.6215 5.85291C57.6976 6.04904 57.7319 6.25885 57.7224 6.46899C57.7302 6.67851 57.695 6.88741 57.619 7.08284C57.5431 7.27828 57.428 7.45613 57.2808 7.60546C57.13 7.7513 56.9516 7.86565 56.7562 7.94183C56.5607 8.01801 56.352 8.0545 56.1422 8.04917C55.9295 8.05573 55.7176 8.01988 55.5189 7.9437C55.3202 7.86752 55.1387 7.75254 54.9848 7.60546ZM57.3771 19.7739H54.8509V9.30913H57.3771V19.7739Z" fill="#161616"/>
<path d="M62.9104 8.87812V9.29671H66.188V11.4252H62.9104V19.7741H60.3988V11.4252H58.7412V9.30299H60.3988V8.82161C60.3988 7.52119 60.7846 6.5054 61.5562 5.77426C62.2888 5.06684 63.2913 4.71313 64.5638 4.71313C65.5463 4.71797 66.5127 4.96299 67.3788 5.42683L66.5877 7.39421C66.0638 7.14255 65.4941 7.00013 64.9133 6.97562C63.578 6.97144 62.9104 7.6056 62.9104 8.87812Z" fill="#161616"/>
<path d="M79.9166 5.17578H81.7668V19.7742H79.9166V18.3279C79.4957 18.8746 78.951 19.3136 78.3274 19.6087C77.7037 19.9038 77.0189 20.0466 76.3293 20.0253C75.6307 20.044 74.9362 19.9143 74.2915 19.6448C73.6468 19.3753 73.0666 18.9721 72.5891 18.4619C71.6133 17.4116 71.0874 16.021 71.1241 14.5878C71.1048 13.886 71.2244 13.1874 71.4758 12.5319C71.7272 11.8764 72.1055 11.2771 72.5891 10.7682C73.0564 10.254 73.629 9.84672 74.2679 9.57402C74.9069 9.30132 75.5971 9.16964 76.2916 9.18798C76.9913 9.17388 77.6844 9.32542 78.3144 9.63023C78.9444 9.93504 79.4934 10.3845 79.9166 10.9419V5.17578ZM79.0668 11.9653C78.7485 11.6087 78.3553 11.3268 77.9153 11.1397C77.4754 10.9527 76.9995 10.8651 76.5218 10.8833C76.0422 10.8671 75.5648 10.9555 75.1228 11.1424C74.6808 11.3292 74.2847 11.61 73.9621 11.9653C73.319 12.6852 72.974 13.6228 72.9973 14.5878C72.9699 15.5648 73.3148 16.5157 73.9621 17.248C74.2854 17.6034 74.6822 17.8842 75.125 18.0707C75.5677 18.2572 76.0458 18.345 76.526 18.3279C77.0036 18.3464 77.4793 18.2591 77.9192 18.0724C78.3592 17.8857 78.7525 17.6042 79.071 17.248C79.7301 16.5215 80.0826 15.5683 80.0547 14.5878C80.082 13.6179 79.7272 12.6762 79.0668 11.9653Z" fill="#161616"/>
<path d="M93.2806 15.3578H85.0553C85.4013 17.3252 86.6096 18.3089 88.6803 18.3089C89.9716 18.327 91.2337 17.9245 92.276 17.1619L93.0671 18.5684C91.7963 19.5409 90.2319 20.051 88.6321 20.0146C86.8182 20.0146 85.4104 19.4426 84.4085 18.2984C83.5476 17.3105 83.1172 16.0701 83.1172 14.5771C83.1172 13.0228 83.5993 11.7377 84.5634 10.7219C85.5276 9.70613 86.7875 9.19824 88.3433 9.19824C89.8084 9.19824 91.0042 9.66706 91.9306 10.6047C92.8571 11.5424 93.3259 12.8156 93.3371 14.4244C93.3371 14.5416 93.3183 14.8597 93.2806 15.3578ZM91.4283 13.7567C91.4245 13.3598 91.3409 12.9678 91.1825 12.6038C91.0241 12.2399 90.7942 11.9115 90.5065 11.6382C90.2187 11.3649 89.8789 11.1522 89.5073 11.0127C89.1357 10.8733 88.7399 10.81 88.3433 10.8266C87.5421 10.8153 86.7677 11.1155 86.1834 11.6637C85.5754 12.2101 85.174 12.9492 85.0469 13.7567H91.4283Z" fill="#161616"/>
<path d="M96.4812 19.7742H94.6289V5.17578H96.4812V19.7742Z" fill="#161616"/>
<path d="M98.2941 7.58659C98.1668 7.46541 98.0667 7.31862 98.0003 7.15592C97.9339 6.99321 97.9028 6.81828 97.909 6.64267C97.904 6.46968 97.9357 6.29761 98.0021 6.13779C98.0685 5.97797 98.168 5.83404 98.2941 5.71549C98.5545 5.47043 98.9015 5.3387 99.2589 5.34922C99.4314 5.34674 99.6026 5.37985 99.7618 5.44646C99.921 5.51308 100.065 5.61178 100.184 5.73641C100.309 5.85145 100.408 5.99177 100.474 6.14803C100.541 6.3043 100.573 6.47292 100.569 6.64267C100.575 6.81828 100.544 6.99321 100.478 7.15592C100.411 7.31862 100.311 7.46541 100.184 7.58659C100.065 7.71084 99.9207 7.80915 99.7615 7.87541C99.6024 7.94166 99.4313 7.97444 99.2589 7.97169C99.0803 7.97692 98.9025 7.94545 98.7366 7.87921C98.5706 7.81297 98.42 7.71337 98.2941 7.58659ZM100.144 19.7739H98.2941V9.43886H100.144V19.7739Z" fill="#161616"/>
<path d="M109.785 9.43921H111.83L107.278 19.7554H105.985L101.437 9.43921H103.5L106.663 17.1622L109.785 9.43921Z" fill="#161616"/>
<path d="M121.663 15.3578H113.43C113.777 17.3252 114.985 18.3089 117.055 18.3089C118.349 18.3289 119.615 17.9262 120.661 17.1619L121.452 18.5684C120.181 19.5409 118.617 20.051 117.017 20.0146C115.203 20.0146 113.795 19.4426 112.793 18.2984C111.934 17.3105 111.503 16.0701 111.502 14.5771C111.502 13.0228 111.984 11.7377 112.948 10.7219C113.912 9.70613 115.172 9.19824 116.728 9.19824C118.193 9.19824 119.388 9.66706 120.313 10.6047C121.238 11.5424 121.708 12.8156 121.722 14.4244C121.722 14.5416 121.703 14.8597 121.663 15.3578ZM119.813 13.7567C119.804 13.3554 119.716 12.9598 119.554 12.5928C119.391 12.2257 119.158 11.8943 118.867 11.6177C118.285 11.084 117.517 10.7999 116.728 10.8266C115.927 10.8149 115.152 11.1151 114.568 11.6637C113.96 12.2107 113.559 12.9494 113.43 13.7567H119.813Z" fill="#161616"/>
<path d="M123.098 19.7742V9.43918H124.852V10.9608C125.456 9.76499 126.446 9.1678 127.821 9.16919C128.231 9.17339 128.639 9.22465 129.037 9.32198L128.864 11.1156C128.515 11.002 128.151 10.9434 127.784 10.9419C127.404 10.9249 127.026 10.9923 126.675 11.1392C126.325 11.2861 126.012 11.509 125.758 11.7917C125.218 12.3819 124.948 13.2191 124.948 14.3032V19.7742H123.098Z" fill="#161616"/>
<path d="M138.456 9.43921H140.5L136.162 20.9295C135.352 23.0895 134.157 24.1694 132.574 24.1694C131.995 24.1882 131.422 24.0478 130.917 23.7634L131.147 22.1435C131.539 22.3328 131.967 22.4382 132.403 22.4532C133.252 22.4532 133.934 21.8491 134.447 20.6407L134.833 19.7324L130.337 9.43921H132.478L135.68 17.1832L138.456 9.43921Z" fill="#161616"/>
</svg>
