<svg width="125" height="31" viewBox="0 0 125 31" fill="none" xmlns="http://www.w3.org/2000/svg">
<path d="M17.4641 7.46484H13.466L8.13184 20.5902H11.5548L15.4651 10.4529L19.3774 20.5902H22.7983L17.4641 7.46484Z" fill="#FFB500"/>
<path d="M14.0207 30.2362H13.9852C11.0216 29.9367 8.21439 28.7612 5.92164 26.8597C3.6289 24.9582 1.95452 22.4168 1.1121 19.5597C0.269675 16.7027 0.297385 13.6594 1.19169 10.8182C2.086 7.97694 3.80638 5.46648 6.13337 3.60702L6.16264 3.58192C8.5172 1.64578 11.3682 0.409757 14.3908 0.0146372L14.5226 0L15.8127 3.17418L15.6705 3.18463C12.9904 3.3509 10.428 4.34531 8.33731 6.03051L8.24112 6.10997L8.08639 6.23753L8.04666 6.26889C6.25457 7.74431 4.94143 9.71908 4.27404 11.9424C3.60664 14.1657 3.6151 16.5372 4.29835 18.7556C4.98159 20.9741 6.30879 22.9395 8.11136 24.4021C9.91394 25.8646 12.1105 26.7585 14.4222 26.97C17.7888 27.2525 21.1327 26.2097 23.7419 24.0635C23.866 23.9631 23.9872 23.8607 24.1057 23.7561L25.3959 26.9345C22.1552 29.4282 18.0929 30.6073 14.0207 30.2362Z" fill="#FFB500"/>
<path d="M47.2465 10.3276C48.0439 11.1249 48.4419 12.2102 48.4405 13.5833V19.8836H45.9166V14.0454C45.9166 13.209 45.718 12.5608 45.3207 12.1008C45.1222 11.8811 44.8775 11.7083 44.6041 11.5947C44.3307 11.4812 44.0355 11.4297 43.7399 11.4442C43.415 11.4339 43.0919 11.4942 42.7926 11.621C42.4933 11.7477 42.2251 11.9378 42.0064 12.1781C41.5391 12.715 41.2978 13.4119 41.3331 14.1228V19.8836H38.8239V14.0642C38.8239 13.2543 38.6148 12.6124 38.1966 12.1384C37.9995 11.9096 37.7533 11.7283 37.4762 11.6081C37.1992 11.4879 36.8986 11.4318 36.5969 11.4442C36.2721 11.4341 35.949 11.4945 35.6498 11.6211C35.3505 11.7478 35.0823 11.9379 34.8635 12.1781C34.3869 12.7181 34.1387 13.4221 34.1713 14.1416V19.8836H31.6621V9.42843H34.1525V10.9319C34.4495 10.3758 34.9032 9.91919 35.4573 9.61871C36.0267 9.29725 36.6707 9.13138 37.3246 9.13778C38.8413 9.16287 39.8819 9.78599 40.4465 11.0072C41.2439 9.7609 42.4985 9.13778 44.2103 9.13778C44.7707 9.11913 45.3291 9.21504 45.8511 9.41962C46.3732 9.6242 46.848 9.93315 47.2465 10.3276Z" fill="#161616"/>
<path d="M60.4429 15.549H52.4678C52.8274 17.1549 53.8932 17.9579 55.6649 17.9579C56.8998 17.9693 58.1068 17.5918 59.1151 16.8789L60.1167 18.6709C58.8024 19.6424 57.2027 20.1498 55.5688 20.1137C53.7203 20.1137 52.2886 19.5491 51.2738 18.42C50.3593 17.4177 49.9035 16.1589 49.9063 14.6436C49.9063 13.0502 50.4067 11.7468 51.4076 10.7334C52.4364 9.69205 53.7468 9.17139 55.3387 9.17139C56.8401 9.17139 58.0794 9.64675 59.0566 10.5975C60.0338 11.5482 60.5217 12.8265 60.5203 14.4324C60.5179 14.8059 60.492 15.1788 60.4429 15.549ZM53.4694 11.919C52.952 12.3694 52.5996 12.9793 52.4678 13.6525H58.055C57.9852 12.9845 57.6691 12.3665 57.1684 11.919C56.6553 11.494 56.0047 11.271 55.3387 11.2917C54.6607 11.2708 53.9976 11.4933 53.4694 11.919Z" fill="#161616"/>
<path d="M62.0615 19.8836V9.42848H64.4725V10.8734C64.7433 10.3399 65.161 9.89509 65.6764 9.59129C66.1917 9.28748 66.7832 9.1374 67.3811 9.15873C67.8081 9.15651 68.2325 9.22723 68.6357 9.36784L68.4266 11.7767C68.0351 11.6467 67.6263 11.5762 67.2138 11.5676C66.8582 11.5491 66.503 11.6096 66.1736 11.7448C65.8442 11.88 65.5489 12.0866 65.3089 12.3496C64.8196 12.9156 64.5756 13.7248 64.577 14.7773V19.8836H62.0615Z" fill="#161616"/>
<path d="M70.5948 18.5725C69.5688 17.5465 69.0551 16.2369 69.0537 14.6435C69.0523 13.0501 69.573 11.7398 70.6157 10.7124C71.6682 9.68638 73.0162 9.17269 74.6597 9.17129C75.68 9.15598 76.6855 9.41603 77.5705 9.92406C78.4215 10.4128 79.1007 11.1527 79.5151 12.0423L77.4743 13.1401C76.8051 12.036 75.8802 11.484 74.6995 11.484C74.2829 11.4738 73.8685 11.5488 73.4819 11.7042C73.0952 11.8597 72.7443 12.0925 72.4507 12.3882C72.1571 12.684 71.927 13.0365 71.7743 13.4243C71.6217 13.8121 71.5497 14.227 71.5629 14.6435C71.5498 15.0571 71.6185 15.4692 71.7653 15.856C71.9121 16.2429 72.134 16.5969 72.4182 16.8976C72.6997 17.1947 73.0408 17.429 73.4192 17.585C73.7976 17.741 74.2046 17.8153 74.6137 17.803C75.1924 17.8034 75.7606 17.6489 76.2594 17.3556C76.7564 17.0783 77.1646 16.6657 77.4366 16.1658L79.4775 17.3556C79.0196 18.1982 78.3313 18.893 77.4931 19.3588C76.6074 19.8628 75.6035 20.122 74.5845 20.1094C72.9786 20.1122 71.6487 19.5999 70.5948 18.5725Z" fill="#161616"/>
<path d="M80.8066 19.8835V5.24634H83.2552V10.7708C83.9355 9.69186 85.0396 9.15237 86.5674 9.15237C87.0974 9.14285 87.624 9.23848 88.1168 9.43372C88.6096 9.62897 89.0588 9.91997 89.4384 10.2899C90.2358 11.0468 90.6338 12.1188 90.6324 13.5059V19.8835H88.1231V14.1813C88.1231 13.3198 87.9175 12.6451 87.5063 12.1572C87.2985 11.9209 87.0403 11.7342 86.7508 11.6108C86.4613 11.4874 86.1479 11.4304 85.8335 11.4441C85.4935 11.4322 85.1551 11.4951 84.8422 11.6285C84.5293 11.7618 84.2495 11.9623 84.0226 12.2157C83.5351 12.7661 83.2802 13.4843 83.3117 14.2189V19.8835H80.8066Z" fill="#161616"/>
<path d="M100.69 9.42207H103.078V19.8772H100.69V18.5933C100.27 19.0862 99.7471 19.4801 99.1574 19.7466C98.5677 20.013 97.9262 20.1455 97.2792 20.1344C96.5822 20.1541 95.8892 20.023 95.2476 19.7502C94.6059 19.4773 94.0307 19.0692 93.5614 18.5536C92.5856 17.5011 92.0977 16.1844 92.0977 14.6036C92.0977 13.0228 92.5856 11.7257 93.5614 10.7122C94.0383 10.209 94.6158 9.81169 95.2564 9.54619C95.8969 9.28069 96.5861 9.15291 97.2792 9.17114C97.9291 9.1668 98.5719 9.30627 99.1615 9.57958C99.7511 9.85288 100.273 10.2532 100.69 10.752V9.42207ZM99.8804 12.3892C99.5906 12.0964 99.2455 11.864 98.8652 11.7054C98.485 11.5468 98.077 11.4651 97.665 11.4651C97.253 11.4651 96.8451 11.5468 96.4648 11.7054C96.0845 11.864 95.7395 12.0964 95.4496 12.3892C94.9022 13.0163 94.6005 13.8204 94.6005 14.6528C94.6005 15.4851 94.9022 16.2893 95.4496 16.9163C95.7395 17.2091 96.0845 17.4415 96.4648 17.6001C96.8451 17.7587 97.253 17.8404 97.665 17.8404C98.077 17.8404 98.485 17.7587 98.8652 17.6001C99.2455 17.4415 99.5906 17.2091 99.8804 16.9163C100.458 16.3005 100.769 15.4813 100.746 14.6371C100.764 13.8032 100.453 12.9958 99.8804 12.3892Z" fill="#161616"/>
<path d="M105.235 19.8836V9.42843H107.701V10.8922C108.306 9.7379 109.404 9.16008 110.996 9.15869C111.532 9.14694 112.065 9.24141 112.564 9.43664C113.063 9.63188 113.519 9.92402 113.905 10.2962C114.702 11.0532 115.1 12.1252 115.099 13.5122V19.8898H112.566V14.2002C112.566 13.3386 112.361 12.6577 111.95 12.1572C111.742 11.9207 111.484 11.7338 111.194 11.6104C110.905 11.487 110.591 11.4302 110.277 11.4442C109.932 11.4339 109.59 11.4994 109.273 11.636C108.957 11.7726 108.674 11.9769 108.445 12.2346C107.957 12.7849 107.702 13.5031 107.734 14.2378V19.8836H105.235Z" fill="#161616"/>
<path d="M124.5 19.2667C123.608 19.8655 122.551 20.169 121.477 20.1345C119.086 20.1345 117.891 18.7725 117.893 16.0486V11.5425H116.159V9.42217H117.93V5.72314H120.417V9.42217H123.923V11.5425H120.417V15.9524C120.417 17.2071 120.924 17.8344 121.939 17.8344C122.568 17.8229 123.181 17.6361 123.71 17.2949L124.5 19.2667Z" fill="#161616"/>
</svg>
