<svg width="105" height="30" viewBox="0 0 105 30" fill="none" xmlns="http://www.w3.org/2000/svg">
<g clip-path="url(#clip0_473_1251)">
<path d="M44.1746 4.91026H41.8053V18.6654H44.1746V4.91026ZM47.4599 7.65931C48.316 7.65931 48.9581 7.04621 48.9581 6.17601C48.9581 5.32558 48.316 4.6927 47.4599 4.6927C46.6037 4.6927 45.9317 5.32558 45.9317 6.17601C45.9317 7.04621 46.5888 7.65931 47.4599 7.65931ZM48.6296 8.83607H46.2404V18.6654H48.6296V8.83607ZM55.7427 6.64572C56.1807 6.64572 56.7083 6.77428 57.3255 7.04621L58.0722 5.20197C57.2011 4.74709 56.3051 4.52954 55.4141 4.52954C53.0647 4.52954 51.4768 5.90407 51.4768 8.38613V8.83607H49.9089V10.8286H51.4768V18.6654H53.8462V10.8286H56.9423V8.83607H53.8462V8.44052C53.8462 7.28354 54.5182 6.64572 55.7427 6.64572Z" fill="black"/>
<path d="M37.5592 13.7408C37.5592 14.5912 37.2855 15.2983 36.7379 15.8767C36.1904 16.4602 35.3442 16.7469 34.488 16.7469C33.6319 16.7469 32.935 16.4602 32.3924 15.8767C31.8598 15.3032 31.591 14.5912 31.591 13.7408C31.591 12.9101 31.8598 12.1981 32.3924 11.6246C32.935 11.0412 33.6319 10.7544 34.488 10.7544C35.3442 10.7544 36.1904 11.0461 36.7379 11.6246C37.2855 12.2031 37.5592 12.9101 37.5592 13.7408ZM37.5045 9.75069C36.6185 8.99421 35.5333 8.60361 34.279 8.60361C32.8753 8.60361 31.5363 9.0931 30.6055 10.0523C29.6746 11.0115 29.2217 12.2426 29.2217 13.7062C29.2217 15.1746 29.6746 16.4206 30.6055 17.4194C31.5363 18.4132 32.8554 18.9027 34.279 18.9027C35.5732 18.9027 36.5289 18.5319 37.5045 17.7605V18.6654H39.7643V8.83599H37.5045V9.75069Z" fill="black"/>
<path d="M72.9453 8.73247C71.4172 8.73247 70.0483 9.45435 69.3913 10.5421C68.8288 9.39996 67.6242 8.73247 66.2952 8.73247C65.001 8.73247 63.9457 9.38512 63.3633 10.4135V8.98463H61.7755V18.6706H63.3982V13.2368C63.3982 11.4271 64.4933 10.2356 66.0762 10.2356C67.5894 10.2356 68.5003 11.3381 68.5003 13.2022V18.6706H70.123V13.2022C70.123 11.4469 71.1982 10.2356 72.781 10.2356C74.2594 10.2356 75.1852 11.2838 75.1852 13.1675V18.6706H76.8079V12.9302C76.8079 11.6447 76.4645 10.6311 75.7726 9.87461C75.0807 9.11319 74.13 8.73247 72.9453 8.73247ZM78.4356 13.8202C78.4356 15.2491 78.9135 16.4605 79.8791 17.4395C80.8448 18.4135 82.0643 18.903 83.5377 18.903C85.0161 18.903 86.2356 18.4135 87.2013 17.4395C88.1669 16.4605 88.6398 15.2491 88.6398 13.8202C88.6398 12.4061 88.152 11.2096 87.1863 10.2356C86.2207 9.23679 85.0161 8.75225 83.5377 8.75225C82.0643 8.75225 80.8448 9.23679 79.8791 10.2356C78.9135 11.2096 78.4356 12.4061 78.4356 13.8202ZM87.0021 13.8202C87.0021 14.814 86.6736 15.6644 86.0016 16.3715C85.3247 17.0736 84.5034 17.4197 83.5377 17.4197C82.5721 17.4197 81.7557 17.0736 81.0788 16.3715C80.4068 15.6644 80.0783 14.814 80.0783 13.8202C80.0783 12.8412 80.4068 12.0056 81.0788 11.3035C81.7557 10.5965 82.5721 10.2356 83.5377 10.2356C84.5034 10.2356 85.3247 10.5965 86.0016 11.3035C86.6736 12.0056 87.0021 12.8412 87.0021 13.8202ZM95.3944 8.75225C93.9509 8.75225 92.7862 9.33074 91.8952 10.4679V4.96982H90.2725V18.6706H91.8952V17.2367C92.7663 18.3443 93.936 18.903 95.3745 18.903C96.7782 18.903 97.9281 18.4184 98.8539 17.4395C99.7897 16.4457 100.258 15.2491 100.258 13.835C100.258 12.4259 99.7847 11.2294 98.8539 10.2356C97.9231 9.23679 96.7782 8.75225 95.3944 8.75225ZM95.2103 17.3851C94.1899 17.3851 93.3685 17.039 92.7513 16.3517C92.1291 15.6644 91.8205 14.814 91.8205 13.8202C91.8205 12.8214 92.1291 11.9908 92.7513 11.3035C93.3685 10.6163 94.1899 10.2702 95.2103 10.2702C96.2108 10.2702 97.0221 10.6212 97.6493 11.3035C98.2815 11.9809 98.6 12.8214 98.6 13.8202C98.6 14.814 98.2865 15.6595 97.6493 16.3517C97.0271 17.034 96.2108 17.3851 95.2103 17.3851ZM102.851 7.57549C103.508 7.57549 104.036 7.05139 104.036 6.37896C104.036 5.71148 103.508 5.20221 102.851 5.20221C102.139 5.20221 101.631 5.71148 101.631 6.37896C101.631 7.05139 102.139 7.57549 102.851 7.57549ZM103.637 8.98463H102.015V18.6706H103.637V8.98463Z" fill="black"/>
<path fill-rule="evenodd" clip-rule="evenodd" d="M13.7011 29.185C11.7111 28.9999 9.84544 28.4446 8.10419 27.5191C4.80823 25.7297 2.25853 22.7063 1.07696 18.8808C-0.0424222 15.0553 0.517268 11.1064 2.32072 7.89786C4.68385 3.57872 9.22357 0.61702 14.0742 0H14.1986L15.4423 3.0851C15.3802 3.0851 15.318 3.0851 15.318 3.0851C11.2136 3.33191 7.10918 5.73829 5.11917 9.3787C3.68885 11.9085 3.31572 14.9936 4.18635 17.9553C5.05698 20.9787 7.10918 23.3234 9.65888 24.6808C11.027 25.4212 12.5195 25.8531 14.0742 26.0382C17.4945 26.3468 20.6661 25.2361 23.1536 23.2617C23.278 23.1382 23.4024 23.0765 23.5268 22.9531L24.7705 26.0382C21.7233 28.3212 17.8055 29.5553 13.7011 29.185ZM17.0592 7.21913H13.1414L7.97981 19.868H11.338L15.1314 10.0574L18.9249 19.868H22.283L17.0592 7.21913Z" fill="#37A134"/>
</g>
<defs>
<clipPath id="clip0_473_1251">
<rect width="104" height="29.25" fill="white" transform="translate(0.5)"/>
</clipPath>
</defs>
</svg>
