<svg width="121" height="31" viewBox="0 0 121 31" fill="none" xmlns="http://www.w3.org/2000/svg">
<path d="M16.8068 7.39526H12.846L7.56152 20.3983H10.9526L14.8264 10.3555L18.7022 20.3983H22.0912L16.8068 7.39526Z" fill="#39B980"/>
<path d="M13.3947 29.9543H13.3594C10.4235 29.6576 7.64247 28.4931 5.3711 26.6093C3.09973 24.7255 1.44096 22.2078 0.606393 19.3774C-0.228178 16.547 -0.200726 13.5321 0.685246 10.7173C1.57122 7.90257 3.27555 5.41551 5.58085 3.57339L5.60985 3.54853C7.94246 1.63043 10.7668 0.405937 13.7613 0.0145007L13.8918 0L15.17 3.14458L15.0291 3.15494C12.3739 3.31966 9.83544 4.3048 7.76424 5.97429L7.66895 6.05301L7.51566 6.17937L7.4763 6.21045C5.70092 7.67211 4.40002 9.62847 3.73885 11.831C3.07768 14.0336 3.08606 16.383 3.76294 18.5808C4.43981 20.7786 5.75464 22.7256 7.5404 24.1746C9.32617 25.6235 11.5023 26.509 13.7924 26.7186C17.1276 26.9985 20.4403 25.9653 23.0252 23.8392C23.1481 23.7397 23.2683 23.6382 23.3857 23.5347L24.6638 26.6834C21.4533 29.1538 17.4289 30.3219 13.3947 29.9543Z" fill="#39B980"/>
<path d="M38.6885 9.37928H41.1701V19.4724H38.6885V18.3057C37.8242 19.244 36.7501 19.7132 35.4661 19.7132C34.0092 19.7132 32.8116 19.207 31.8733 18.1946C30.935 17.1822 30.4658 15.9105 30.4658 14.3795C30.4658 12.8609 30.9412 11.6078 31.8918 10.6201C32.8425 9.62003 34.0339 9.12001 35.4661 9.12001C36.7254 9.12001 37.7995 9.60769 38.6885 10.583V9.37928ZM38.7255 14.4166C38.7255 13.6264 38.4539 12.9412 37.9107 12.3609C37.3798 11.793 36.7069 11.509 35.892 11.509C35.0648 11.509 34.3858 11.793 33.8549 12.3609C33.3363 12.9288 33.0771 13.6141 33.0771 14.4166C33.0771 15.2314 33.3425 15.9228 33.8734 16.4908C34.4043 17.0587 35.0772 17.3427 35.892 17.3427C36.7069 17.3427 37.3798 17.0587 37.9107 16.4908C38.4539 15.9105 38.7255 15.2191 38.7255 14.4166Z" fill="black"/>
<path d="M45.8515 19.4724H43.2402V5.39759H45.8515V19.4724Z" fill="black"/>
<path d="M50.418 7.78661C50.1093 8.09526 49.7266 8.24959 49.2697 8.24959C48.8129 8.24959 48.4302 8.09526 48.1215 7.78661C47.8129 7.47795 47.6586 7.09521 47.6586 6.6384C47.6586 6.18158 47.8129 5.80502 48.1215 5.50871C48.4302 5.20005 48.8129 5.04572 49.2697 5.04572C49.7266 5.04572 50.1093 5.20005 50.418 5.50871C50.7266 5.80502 50.8809 6.18158 50.8809 6.6384C50.8809 7.09521 50.7266 7.47795 50.418 7.78661ZM50.5661 19.4724H47.9549V9.37928H50.5661V19.4724Z" fill="black"/>
<path d="M57.9842 7.26806C56.7372 7.26806 56.1137 7.85451 56.1137 9.02741V9.37928H59.2435V11.5646H56.1137V19.4724H53.5025V11.5646H51.9468V9.37928H53.5025V8.97185C53.5025 7.66314 53.879 6.66926 54.6322 5.99022C55.3976 5.29882 56.3853 4.95312 57.5953 4.95312C58.5953 4.95312 59.5522 5.20005 60.4658 5.6939L59.6139 7.69401C58.9719 7.41004 58.4286 7.26806 57.9842 7.26806Z" fill="black"/>
<path d="M64.757 19.4724V9.4904H66.7571V10.8979C67.3867 9.78671 68.4423 9.23113 69.9239 9.23113C71.0227 9.23113 71.9487 9.58917 72.7018 10.3053C73.4673 11.0337 73.85 12.0646 73.85 13.398V19.4724H71.7944V13.9721C71.7944 13.0708 71.5721 12.3671 71.1277 11.8609C70.7079 11.367 70.1338 11.1201 69.4053 11.1201C68.6399 11.1201 68.0102 11.3856 67.5164 11.9165C67.0348 12.4597 66.7941 13.1573 66.7941 14.0092V19.4724H64.757Z" fill="black"/>
<path d="M83.8686 9.4904H85.8317V19.4724H83.8686V18.102C82.9673 19.1761 81.8315 19.7132 80.461 19.7132C79.0165 19.7132 77.8251 19.207 76.8868 18.1946C75.9485 17.1822 75.4793 15.9228 75.4793 14.4166C75.4793 12.9227 75.9485 11.688 76.8868 10.7127C77.8251 9.73732 79.0165 9.24964 80.461 9.24964C81.8315 9.24964 82.9673 9.79288 83.8686 10.8794V9.4904ZM80.7388 17.8427C81.6648 17.8427 82.4364 17.5155 83.0538 16.8612C83.6587 16.2191 83.9612 15.4228 83.9612 14.4721C83.9612 13.5338 83.6587 12.7437 83.0538 12.1016C82.4364 11.4473 81.6648 11.1201 80.7388 11.1201C79.7882 11.1201 79.0165 11.4473 78.4239 12.1016C77.8313 12.7437 77.535 13.54 77.535 14.4907C77.535 15.429 77.8313 16.2253 78.4239 16.8797C79.0165 17.5217 79.7882 17.8427 80.7388 17.8427Z" fill="black"/>
<path d="M91.1458 19.7132C89.4296 19.7132 88.1518 19.0156 87.3122 17.6205L88.6271 16.4352C89.2568 17.4476 90.1087 17.9538 91.1828 17.9538C91.6643 17.9538 92.0594 17.8303 92.368 17.5834C92.6767 17.3488 92.831 17.0587 92.831 16.713C92.831 16.2191 92.5471 15.8364 91.9791 15.5648C91.831 15.4784 91.4297 15.3117 90.7754 15.0648C90.1087 14.7808 89.6889 14.5894 89.5161 14.4907C88.4543 13.9351 87.9234 13.114 87.9234 12.0276C87.9234 11.2004 88.232 10.5151 88.8493 9.9719C89.4914 9.42867 90.3186 9.15705 91.331 9.15705C92.7508 9.15705 93.8434 9.66942 94.6089 10.6942L93.4237 11.9535C92.831 11.2251 92.1026 10.8608 91.2384 10.8608C90.8309 10.8608 90.5038 10.9658 90.2568 11.1757C90.0222 11.3856 89.905 11.6448 89.905 11.9535C89.905 12.435 90.1828 12.7992 90.7383 13.0461L91.7569 13.4721C92.4113 13.7437 92.8804 13.9536 93.1644 14.1017C94.3002 14.6944 94.8682 15.5339 94.8682 16.6204C94.8682 17.497 94.5225 18.2316 93.8311 18.8242C93.152 19.4168 92.2569 19.7132 91.1458 19.7132Z" fill="black"/>
<path d="M97.6419 8.17552C97.2468 8.17552 96.9135 8.04588 96.6418 7.78661C96.3702 7.51499 96.2344 7.18164 96.2344 6.78655C96.2344 6.40382 96.3702 6.08281 96.6418 5.82354C96.9135 5.56427 97.2468 5.43463 97.6419 5.43463C98.0246 5.43463 98.3456 5.56427 98.6049 5.82354C98.8642 6.08281 98.9938 6.40382 98.9938 6.78655C98.9938 7.18164 98.8642 7.51499 98.6049 7.78661C98.3456 8.04588 98.0246 8.17552 97.6419 8.17552ZM98.6234 19.4724H96.5863V9.4904H98.6234V19.4724Z" fill="black"/>
<path d="M107.715 9.4904H109.956L105.826 20.3799C105.382 21.5528 104.863 22.4046 104.271 22.9355C103.678 23.4541 102.956 23.7134 102.104 23.7134C101.4 23.7134 100.832 23.5714 100.4 23.2874L100.696 21.5281C101.178 21.7379 101.591 21.8429 101.937 21.8429C102.74 21.8429 103.394 21.275 103.9 20.1391L104.215 19.3983L99.8815 9.4904H102.233L105.16 16.6945L107.715 9.4904Z" fill="black"/>
<path d="M119.037 9.4904H121V19.4724H119.037V18.102C118.136 19.1761 117 19.7132 115.629 19.7132C114.185 19.7132 112.993 19.207 112.055 18.1946C111.117 17.1822 110.647 15.9228 110.647 14.4166C110.647 12.9227 111.117 11.688 112.055 10.7127C112.993 9.73732 114.185 9.24964 115.629 9.24964C117 9.24964 118.136 9.79288 119.037 10.8794V9.4904ZM115.907 17.8427C116.833 17.8427 117.605 17.5155 118.222 16.8612C118.827 16.2191 119.129 15.4228 119.129 14.4721C119.129 13.5338 118.827 12.7437 118.222 12.1016C117.605 11.4473 116.833 11.1201 115.907 11.1201C114.956 11.1201 114.185 11.4473 113.592 12.1016C112.999 12.7437 112.703 13.54 112.703 14.4907C112.703 15.429 112.999 16.2253 113.592 16.8797C114.185 17.5217 114.956 17.8427 115.907 17.8427Z" fill="black"/>
</svg>
