<svg width="106" height="30" viewBox="0 0 106 30" fill="none" xmlns="http://www.w3.org/2000/svg">
<path d="M17.2649 7.30262H13.3476L8.10999 20.162H11.4641L15.2937 10.2312L19.1296 20.162H22.4774L17.2649 7.30262Z" fill="#FFB500"/>
<path d="M13.892 29.6172H13.8545C11.8833 29.4232 9.98727 28.8162 8.26643 27.8964C4.96867 26.0879 2.35926 23.0342 1.22663 19.1357C0.0752332 15.2498 0.625902 11.2574 2.43435 7.97844C3.35421 6.27637 4.61825 4.74952 6.13884 3.52929L6.17639 3.51051C8.4479 1.64575 11.2325 0.406744 14.2487 0.0187728C14.2675 0.0187728 14.3551 0 14.3738 0L15.6504 3.10377C15.6128 3.10377 15.5252 3.12254 15.5065 3.12254C12.8094 3.28524 10.3252 4.29271 8.32275 5.90717C8.2852 5.94472 8.25391 5.96349 8.21637 5.99478C8.16005 6.03232 8.12876 6.06361 8.07244 6.11993H8.05367C8.0349 6.1387 8.0349 6.1387 8.01612 6.15748C6.8835 7.09612 5.9386 8.235 5.25027 9.51155C3.82979 12.0834 3.40427 15.206 4.31163 18.2409C5.2002 21.2946 7.24018 23.6662 9.81205 25.0867C11.1762 25.8314 12.6843 26.2944 14.2612 26.4321C17.6841 26.7137 20.913 25.6186 23.3973 23.5911C23.5224 23.4848 23.6288 23.3784 23.754 23.2908L25.0118 26.3945C21.9455 28.7474 18.0283 29.9864 13.892 29.6172Z" fill="#FFB500"/>
<path d="M46.0378 5.53705H43.5723V19.942H46.0378V5.53705ZM49.4607 8.42806C50.3493 8.42806 51.0064 7.77101 51.0064 6.86992C51.0064 5.98134 50.3493 5.32429 49.4607 5.32429C48.5534 5.32429 47.865 5.98134 47.865 6.86992C47.865 7.77727 48.5409 8.42806 49.4607 8.42806ZM50.6685 9.65455H48.1842V19.942H50.6685V9.65455ZM58.0649 7.36427C58.5092 7.36427 59.0599 7.48942 59.7169 7.77101L60.4991 5.83742C59.5793 5.37435 58.6531 5.14282 57.7333 5.14282C55.2866 5.14282 53.6346 6.58207 53.6346 9.16646V9.64829H52.0013V11.7383H53.6346V19.9358H56.1V11.7383H59.3102V9.64829H56.1V9.24155C56.0938 8.02132 56.7884 7.36427 58.0649 7.36427Z" fill="#222222"/>
<path d="M39.1545 14.7983C39.1545 15.6869 38.8729 16.4128 38.3034 17.0323C37.734 17.633 36.8517 17.9396 35.9631 17.9396C35.0745 17.9396 34.3486 17.6392 33.7792 17.0323C33.2285 16.4315 32.9469 15.6869 32.9469 14.7983C32.9469 13.9097 33.2285 13.1651 33.7792 12.5831C34.3486 11.9636 35.0745 11.6632 35.9631 11.6632C36.8517 11.6632 37.734 11.9636 38.3034 12.5831C38.8729 13.1838 39.1545 13.9097 39.1545 14.7983ZM39.0982 10.612C38.1783 9.81099 37.0582 9.40425 35.7441 9.40425C34.2923 9.40425 32.8906 9.91737 31.9332 10.9311C30.957 11.9261 30.4814 13.2214 30.4814 14.742C30.4814 16.2876 30.9633 17.5954 31.9332 18.6279C32.8906 19.673 34.2735 20.1861 35.7441 20.1861C37.0895 20.1861 38.0844 19.7981 39.0982 18.9784V19.9358H41.4385V9.65455H39.0982V10.612Z" fill="#222222"/>
<path d="M67.0759 20.1736C68.1209 20.1736 68.9907 19.8732 69.6665 19.285C70.3236 18.6968 70.6615 17.9709 70.6615 17.1199C70.6615 16.0185 70.092 15.1675 68.9406 14.5668C68.659 14.4041 68.196 14.2101 67.6078 13.966L66.4564 13.4341C65.9057 13.1651 65.6241 12.7395 65.6241 12.1951C65.6241 11.5005 66.156 10.9186 67.1322 10.9186C68.0395 10.9186 68.7467 11.3066 69.2598 12.1075L70.3924 11.0938C69.7917 10.0488 68.5276 9.47934 67.2323 9.47934C66.2749 9.47934 65.4739 9.74841 64.892 10.2615C64.2912 10.7934 64.0034 11.4693 64.0034 12.2827C64.0034 13.3278 64.5165 14.1475 65.5302 14.6982C65.7618 14.8421 66.1685 15.0361 66.788 15.2864C67.4263 15.5555 67.8143 15.7494 68.027 15.8558C68.6653 16.2313 68.9844 16.6693 68.9844 17.22C68.9844 18.0022 68.2586 18.6905 67.1384 18.6905C66.1998 18.6905 65.2612 18.1398 64.673 17.0573L63.3776 17.9459C64.1473 19.4289 65.5678 20.1736 67.0759 20.1736ZM74.0656 19.942V14.2852C74.0656 13.3653 74.3347 12.6019 74.8478 12.0137C75.3797 11.4129 76.0743 11.1063 76.9253 11.1063C78.4835 11.1063 79.5535 12.2389 79.5535 14.2789V19.9358H81.2368V13.7971C81.2368 12.4141 80.8614 11.3691 80.0854 10.637C79.3032 9.89234 78.3646 9.53566 77.2445 9.53566C75.8615 9.53566 74.635 10.1239 74.0155 11.0437V5.59963H72.3823V19.9295H74.0656V19.942ZM82.7699 14.8671C82.7699 16.3564 83.2643 17.633 84.278 18.6655C85.273 19.6792 86.5495 20.1923 88.0764 20.1923C89.622 20.1923 90.8798 19.6792 91.8872 18.6655C92.8822 17.6392 93.3765 16.3564 93.3765 14.8671C93.3765 13.3966 92.8634 12.1326 91.8685 11.1063C90.8547 10.0801 89.6157 9.56069 88.0701 9.56069C86.5433 9.56069 85.2667 10.0738 84.2717 11.1063C83.2705 12.1388 82.7699 13.3966 82.7699 14.8671ZM91.6745 14.8671C91.6745 15.9121 91.3366 16.8007 90.6295 17.5454C89.9349 18.2713 89.0838 18.6279 88.0764 18.6279C87.0814 18.6279 86.2304 18.2713 85.5233 17.5454C84.8287 16.8007 84.4782 15.9121 84.4782 14.8671C84.4782 13.8409 84.8349 12.9711 85.5233 12.2389C86.2304 11.4943 87.0814 11.1063 88.0764 11.1063C89.0901 11.1063 89.9411 11.4943 90.6295 12.2389C91.3428 12.9711 91.6745 13.8409 91.6745 14.8671ZM100.297 9.56694C98.7706 9.56694 97.5504 10.1677 96.6055 11.3566V9.81725H94.9222V24.1159H96.6055V18.4527C97.5253 19.6041 98.7331 20.1923 100.241 20.1923C101.712 20.1923 102.919 19.6792 103.877 18.6655C104.853 17.6205 105.347 16.3564 105.347 14.8859C105.347 13.4154 104.853 12.1513 103.877 11.1063C102.926 10.0801 101.737 9.56694 100.297 9.56694ZM100.103 18.6279C99.0209 18.6279 98.1511 18.29 97.5128 17.5642C96.8558 16.8195 96.5366 15.9309 96.5366 14.8671C96.5366 13.8221 96.8558 12.9335 97.5128 12.2076C98.1699 11.4818 99.0209 11.1063 100.103 11.1063C101.167 11.1063 102.018 11.4818 102.675 12.2076C103.332 12.9335 103.67 13.8221 103.67 14.8671C103.67 15.9309 103.351 16.8195 102.675 17.5642C102.018 18.2775 101.167 18.6279 100.103 18.6279Z" fill="#222222"/>
</svg>
