<svg width="163" height="47" viewBox="0 0 163 47" fill="none" xmlns="http://www.w3.org/2000/svg">
<path d="M26.4741 11.5781H20.2347L11.9102 31.9354H17.2521L23.3544 16.2126L29.4601 31.9354H34.7986L26.4741 11.5781Z" fill="#39B980"/>
<path d="M21.1005 46.896H21.045C16.4201 46.4316 12.0391 44.6085 8.46106 41.6593C4.88297 38.71 2.26994 34.7682 0.955245 30.3369C-0.359446 25.9057 -0.316203 21.1857 1.07946 16.7789C2.47513 12.3722 5.15996 8.47844 8.79148 5.59445L8.83716 5.55554C12.5117 2.55258 16.9609 0.635529 21.6781 0.0227021L21.8837 0L23.8971 4.92312L23.6752 4.93933C19.4926 5.19721 15.4937 6.73954 12.231 9.35326L12.0808 9.47651L11.8394 9.67435L11.7774 9.72298C8.98061 12.0114 6.93132 15.0742 5.88979 18.5225C4.84825 21.9708 4.86144 25.649 5.92774 29.0898C6.994 32.5306 9.06524 35.5789 11.8783 37.8474C14.6914 40.1159 18.1195 41.5022 21.7271 41.8303C26.981 42.2685 32.1995 40.651 36.2715 37.3222C36.465 37.1666 36.6542 37.0078 36.8392 36.8455L38.8528 41.7752C33.7953 45.6428 27.4556 47.4717 21.1005 46.896Z" fill="#39B980"/>
<path d="M61.1988 14.6134H64.9189V30.8294H61.1988V28.838C60.5446 29.6027 59.7281 30.2137 58.8075 30.6271C57.8873 31.0404 56.8862 31.2456 55.8764 31.2281C54.7887 31.2585 53.7072 31.055 52.7059 30.632C51.7046 30.2087 50.8069 29.5759 50.0744 28.7763C48.5514 27.1439 47.79 25.1018 47.79 22.65C47.79 20.1982 48.5514 18.1863 50.0744 16.6145C50.819 15.8343 51.7201 15.2183 52.7197 14.8065C53.7193 14.3948 54.7946 14.1964 55.8764 14.2243C56.8907 14.2173 57.8937 14.4335 58.814 14.8574C59.7342 15.2813 60.5488 15.9024 61.1988 16.6761V14.6134ZM59.936 19.2155C59.4834 18.7614 58.945 18.4009 58.3517 18.1549C57.758 17.9089 57.1215 17.7822 56.4786 17.7822C55.8356 17.7822 55.1988 17.9089 54.6054 18.1549C54.0118 18.4009 53.4734 18.7614 53.0211 19.2155C52.1669 20.188 51.6961 21.4353 51.6961 22.7262C51.6961 24.0172 52.1669 25.2644 53.0211 26.2369C53.4734 26.691 54.0118 27.0515 54.6054 27.2975C55.1988 27.5435 55.8356 27.6702 56.4786 27.6702C57.1215 27.6702 57.758 27.5435 58.3517 27.2975C58.945 27.0515 59.4834 26.691 59.936 26.2369C60.8378 25.2818 61.3233 24.0112 61.2869 22.7019C61.3145 21.4085 60.8293 20.1563 59.936 19.2155Z" fill="black"/>
<path d="M72.2028 30.8387H68.2871V8.13672H72.2028V30.8387Z" fill="black"/>
<path d="M75.8411 12.0002C75.602 11.774 75.4141 11.5002 75.2892 11.1967C75.1644 10.8932 75.1056 10.5669 75.1165 10.2392C75.1095 9.91147 75.1703 9.58583 75.2948 9.28238C75.4193 8.97893 75.6053 8.70409 75.8411 8.47488C76.3287 8.01942 76.9764 7.77153 77.6455 7.78408C77.9733 7.77033 78.3002 7.82433 78.6057 7.94268C78.9115 8.06102 79.1891 8.24114 79.4208 8.47161C79.6529 8.70208 79.8341 8.97791 79.9531 9.2816C80.072 9.58531 80.1264 9.91027 80.1126 10.2359C80.1243 10.5616 80.0685 10.8862 79.9489 11.1896C79.8294 11.4931 79.6488 11.769 79.4176 12.0002C79.1817 12.2232 78.9036 12.3973 78.5993 12.5126C78.2952 12.6278 77.971 12.6818 77.6455 12.6715C77.3151 12.6846 76.9852 12.6319 76.6753 12.5166C76.3654 12.4014 76.0817 12.2258 75.8411 12.0002ZM79.5677 30.8558H75.6288V14.6401H79.5677V30.8558Z" fill="black"/>
<path d="M88.1968 13.9454V14.594H93.3103V17.902H88.1968V30.839H84.2808V17.902H81.6963V14.6135H84.2808V13.8675C84.2808 11.8525 84.8824 10.2785 86.0855 9.14552C87.2275 8.04933 88.7907 7.50122 90.7749 7.50122C92.3075 7.5091 93.8153 7.88874 95.167 8.60716L93.9336 11.6557C93.1165 11.2661 92.2285 11.0454 91.323 11.0071C89.2366 11.0006 88.1945 11.98 88.1968 13.9454Z" fill="black"/>
<path d="M113.662 29.883C112.424 30.8032 110.907 31.2778 109.362 31.2288C105.935 31.2288 104.222 29.2268 104.222 25.2226V17.2736H101.363V14.825H104.251V9.14624H107.077V14.825H112.788V17.2736H107.077V25.4301C107.077 27.5425 107.947 28.5987 109.688 28.5987C110.719 28.5711 111.72 28.2491 112.573 27.6712L113.662 29.883Z" fill="black"/>
<path d="M129.657 23.9995H116.806C117.348 27.0481 119.232 28.5724 122.458 28.5724C124.479 28.598 126.453 27.9683 128.081 26.7789L129.314 28.9616C127.331 30.4657 124.893 31.2548 122.399 31.1993C119.571 31.1993 117.376 30.313 115.814 28.54C114.47 27.0092 113.798 25.0871 113.801 22.7736C113.801 20.365 114.552 18.3737 116.055 16.7997C117.559 15.2257 119.522 14.4387 121.946 14.4387C124.232 14.4387 126.097 15.1652 127.539 16.6181C128.981 18.071 129.714 20.044 129.735 22.5369C129.748 22.7315 129.716 23.2179 129.657 23.9995ZM126.772 21.5185C126.765 20.9035 126.634 20.2962 126.387 19.7324C126.139 19.1687 125.781 18.66 125.332 18.2366C124.883 17.8132 124.353 17.4836 123.774 17.2675C123.194 17.0513 122.577 16.9529 121.959 16.9781C120.71 16.9607 119.502 17.4258 118.591 18.2754C117.646 19.124 117.02 20.2683 116.819 21.5185H126.772Z" fill="black"/>
<path d="M133.325 28.8382C131.741 27.262 130.949 25.2599 130.949 22.8319C130.949 20.4038 131.751 18.392 133.354 16.7963C134.96 15.2201 137.045 14.4332 139.61 14.4353C141.147 14.4235 142.661 14.8138 143.999 15.5672C145.262 16.262 146.28 17.3263 146.913 18.6158L144.544 19.9908C143.36 18.045 141.717 17.072 139.613 17.072C138.85 17.052 138.091 17.1873 137.382 17.4695C136.673 17.7517 136.03 18.1749 135.492 18.7131C134.954 19.2562 134.533 19.9015 134.252 20.6103C133.972 21.3192 133.839 22.077 133.86 22.8383C133.83 24.3549 134.405 25.8216 135.459 26.9182C135.97 27.4587 136.591 27.8849 137.281 28.1684C137.971 28.4519 138.714 28.5862 139.46 28.5625C140.486 28.556 141.492 28.2773 142.374 27.755C143.244 27.2705 143.962 26.5567 144.449 25.6923L146.854 27.0674C146.164 28.3309 145.12 29.3684 143.849 30.0544C142.51 30.8058 140.997 31.197 139.46 31.1894C136.954 31.1938 134.909 30.41 133.325 28.8382Z" fill="black"/>
<path d="M148.75 30.8396V8.21851H151.543V16.7967C152.646 15.201 154.351 14.4043 156.657 14.4065C157.486 14.386 158.311 14.5285 159.085 14.8257C159.859 15.1229 160.566 15.5689 161.167 16.1383C162.387 17.2929 162.999 18.9566 163.001 21.1295V30.8396H160.142V21.9338C160.142 20.4009 159.761 19.1956 159 18.3177C158.636 17.9033 158.183 17.5756 157.675 17.3589C157.167 17.1421 156.615 17.042 156.063 17.0659C155.466 17.046 154.871 17.1559 154.321 17.3878C153.771 17.6197 153.279 17.968 152.878 18.4085C152.034 19.3866 151.593 20.6461 151.644 21.9338V30.8396H148.75Z" fill="black"/>
</svg>
