<svg width="40" height="40" viewBox="0 0 40 40" fill="none" xmlns="http://www.w3.org/2000/svg">
<path d="M15.5027 19.5698C15.8146 19.5698 16.1264 19.581 16.4382 19.5698C17.1867 19.5386 17.8702 19.6122 18.545 20.0775C19.6003 20.8034 20.6967 20.5764 21.762 19.944C22.1272 19.7321 22.5377 19.6102 22.9594 19.5885C24.0583 19.5411 25.1598 19.5698 26.2612 19.5735C27.153 19.5735 27.5085 19.7744 27.6595 20.6587C28.0199 22.7194 28.3068 24.7925 28.6 26.8631C28.6898 27.4992 28.7135 28.1441 28.7471 28.7865C28.7896 29.601 28.6224 29.853 27.874 30.1586C25.7877 30.9874 23.574 31.4495 21.3304 31.5245C18.212 31.6579 15.1547 31.371 12.2247 30.1935C11.3515 29.8443 11.1544 29.6235 11.2605 28.7092C11.5623 26.1172 11.8704 23.5227 12.2683 20.9444C12.4579 19.717 12.7548 19.5723 14.0046 19.5723L15.5027 19.5698Z" fill="#39B980"/>
<path d="M15.9248 12.8866C15.9722 12.5348 16.0034 12.0134 16.1169 11.5145C16.4462 10.0563 17.3181 9.10084 18.8299 8.89502C19.5689 8.78656 20.3192 8.779 21.0602 8.87257C22.7903 9.11206 23.7794 10.2135 23.9915 12.0808C24.2646 14.4819 23.5499 16.6037 21.987 18.4186C20.7396 19.8655 19.2615 19.8518 17.9954 18.4061C16.667 16.8756 16.0084 15.0744 15.9248 12.8866Z" fill="#39B980"/>
<path d="M29.8303 29.0014C29.5272 25.8593 29.3701 22.7721 28.5156 19.8732C29.2042 19.499 29.8603 19.146 30.5251 18.803C30.6403 18.7569 30.7644 18.7377 30.8881 18.7469C31.9259 18.7469 32.9637 18.7568 34.0065 18.7469C34.5753 18.7394 34.9283 18.9963 35.0181 19.5452C35.31 21.3414 35.5944 23.14 35.8538 24.9425C35.9424 25.5562 35.9511 26.1811 35.996 26.8023C36.0297 27.2738 35.8251 27.5956 35.3873 27.7777C33.626 28.5012 31.7887 28.8592 29.8303 29.0014Z" fill="#39B980"/>
<path d="M11.5109 19.7721C10.6976 22.5899 10.4731 25.48 10.2486 28.3702C10.2124 28.8304 10.0876 29.0101 9.565 28.9564C7.93452 28.802 6.33178 28.4316 4.79885 27.855C4.20761 27.628 3.93194 27.2575 4.01426 26.6226C4.30739 24.3649 4.55687 22.101 4.90612 19.852C5.06204 18.8404 5.29281 18.7431 6.29568 18.7418C6.85699 18.7418 7.4183 18.7655 7.97712 18.7356C8.79663 18.6919 9.55627 18.7518 10.2535 19.2919C10.5779 19.5426 11.0481 19.6075 11.5109 19.7721Z" fill="#39B980"/>
<path d="M28.3914 9.42408C30.6554 9.3904 31.8603 10.513 31.9402 12.8069C32.0132 14.5908 31.3938 16.3339 30.2113 17.6716C29.0688 19.0038 27.7466 18.9838 26.6402 17.6267C25.4277 16.1398 24.8377 14.4272 24.9824 12.4963C25.1309 10.4868 26.2872 9.45526 28.3914 9.42408Z" fill="#39B980"/>
<path d="M15.041 13.3994C14.9674 14.9995 14.3425 16.5248 13.2722 17.7165C12.1845 18.9501 10.9958 19.0075 9.91559 17.7876C8.35765 16.0313 7.69655 13.9669 8.26035 11.6194C8.546 10.4332 9.31811 9.70598 10.5355 9.52885C11.9076 9.33052 13.251 9.2931 14.2689 10.4768C14.92 11.2327 15.021 12.1595 15.041 13.3994Z" fill="#39B980"/>
</svg>
