<svg width="40" height="40" viewBox="0 0 40 40" fill="none" xmlns="http://www.w3.org/2000/svg">
<path d="M17.8044 27.8934C18.4892 25.9066 17.7217 24.7452 15.5629 24.4463C15.9908 22.9611 15.7792 22.0283 14.8735 21.4034C13.9102 20.7378 13.0396 20.8985 11.5465 22.0453C11.4706 20.86 10.9386 20.0257 9.77033 19.728C8.56018 19.419 7.78021 20.1446 7.07609 20.9597C3.32679 17.5862 3.22718 13.1781 5.57841 10.0231C7.56965 7.35489 11.2137 6.25795 14.3392 7.52696C15.7056 8.08052 16.9542 8.92162 18.2617 9.63593C16.4086 10.9683 15.0603 12.6743 13.5558 14.215C13.3498 14.4267 13.2513 14.781 13.1857 15.0844C13.0759 15.5375 13.1172 16.014 13.3031 16.4415C13.4891 16.869 13.8096 17.224 14.2158 17.4526C14.6299 17.6856 15.1075 17.7805 15.5792 17.7235C16.0509 17.6665 16.4921 17.4606 16.8387 17.1357C18.0013 16.0874 19.1605 15.0357 20.3299 13.9943C21.2673 13.16 22.5215 13.0886 23.4238 13.8811C26.3082 16.3979 29.1817 18.9262 32.0442 21.4657C32.6759 22.0249 32.7574 22.849 32.3136 23.5645C31.7408 24.4871 30.5726 24.6127 29.6092 23.8475C28.3828 22.8739 27.1587 21.8981 25.9369 20.92C25.741 20.7431 25.53 20.5836 25.3063 20.4435C25.1671 20.3676 24.9735 20.3925 24.8037 20.371C24.8603 20.5284 24.8716 20.7412 24.9815 20.8329C25.766 21.4827 26.5663 22.1075 27.3678 22.7403C27.8557 23.1275 28.3459 23.5113 28.8315 23.9007C29.2049 24.1956 29.4463 24.6264 29.5029 25.0988C29.5595 25.5712 29.4268 26.0469 29.1337 26.4217C28.4885 27.239 27.4583 27.3658 26.6354 26.7138C25.4082 25.7425 24.1868 24.7633 22.963 23.7875C22.8895 23.7286 22.8238 23.6335 22.7423 23.6165C22.5776 23.594 22.4115 23.5846 22.2453 23.5882C22.2974 23.7309 22.3087 23.9278 22.4106 24.0082C23.074 24.5674 23.7566 25.1029 24.4347 25.644C24.935 26.0448 25.4456 26.4364 25.938 26.8451C26.6659 27.4553 26.7938 28.4299 26.2584 29.1782C26.1321 29.362 25.9705 29.5186 25.7829 29.6391C25.5953 29.7596 25.3856 29.8414 25.166 29.8798C24.9464 29.9181 24.7213 29.9123 24.504 29.8626C24.2867 29.8129 24.0814 29.7203 23.9004 29.5903C22.9336 28.8997 22.0133 28.1469 21.0703 27.4202C20.9469 27.3039 20.8101 27.2028 20.6627 27.119C20.5044 27.0729 20.3408 27.047 20.176 27.0421C20.2382 27.2096 20.2518 27.4349 20.3707 27.5356C20.9016 27.9884 21.4631 28.4028 22.0133 28.8329C22.2804 29.0412 22.5578 29.2393 22.8057 29.4669C23.0817 29.7023 23.2595 30.0326 23.3039 30.3926C23.3483 30.7527 23.2562 31.1163 23.0457 31.4117C22.8331 31.7259 22.5141 31.9525 22.1474 32.0497C21.7807 32.1469 21.3913 32.1081 21.051 31.9404C20.8858 31.8532 20.7443 31.7219 20.5869 31.6189C20.1273 31.3212 19.8737 31.0529 20.0447 30.3657C20.3616 29.0967 19.3926 28.0994 17.8044 27.8934Z" fill="#39B980"/>
<path d="M33.164 21.767C32.0094 20.7052 30.9339 19.6784 29.8166 18.6981C27.8031 16.9336 25.7753 15.1842 23.7331 13.45C22.6769 12.5511 21.0921 12.6179 19.9974 13.5847C18.8653 14.5843 17.7526 15.602 16.6352 16.6151C15.8009 17.3725 14.7968 17.4177 14.1131 16.7204C13.4293 16.0231 13.4961 14.9726 14.2591 14.1903C15.3119 13.1092 16.3556 12.0191 17.4288 10.9584C17.7084 10.6826 18.037 10.4615 18.3978 10.3063C20.2396 9.53427 22.0848 8.76788 23.9448 8.04791C28.3088 6.35891 33.2625 8.18828 35.1836 12.2602C36.5341 15.1231 36.1945 17.8694 34.278 20.3995C33.9327 20.8478 33.5625 21.2746 33.164 21.767Z" fill="#39B980"/>
<path d="M11.2762 27.6037C10.3479 27.5686 9.83057 27.238 9.52153 26.6098C9.21248 25.9815 9.2555 25.3645 9.70265 24.8585C10.6083 23.8476 11.5377 22.8593 12.5146 21.9209C13.1554 21.305 14.1731 21.4115 14.8115 22.0533C15.4217 22.668 15.5055 23.6687 14.9247 24.3174C14.0429 25.2966 13.1327 26.2532 12.1841 27.1678C11.9079 27.4305 11.463 27.5176 11.2762 27.6037Z" fill="#39B980"/>
<path d="M17.5553 26.9607C17.4534 27.1656 17.3176 27.606 17.0482 27.9377C16.5614 28.5331 16.0033 29.0697 15.4633 29.621C14.6856 30.4033 13.6611 30.461 12.9479 29.7795C12.2042 29.0675 12.2178 28.0441 12.9909 27.2245C13.5456 26.6358 14.0879 26.0313 14.6777 25.4778C15.1995 24.9887 15.8335 24.8721 16.5082 25.1676C17.1829 25.4631 17.501 25.994 17.5553 26.9607Z" fill="#39B980"/>
<path d="M8.37204 24.7699C7.53094 24.7552 7.01926 24.4643 6.70229 23.9005C6.36268 23.296 6.35363 22.6417 6.78719 22.0893C7.22913 21.5283 7.72175 21.0091 8.25884 20.5384C8.85768 20.0142 9.84368 20.0992 10.4357 20.6425C11.0278 21.1859 11.2191 22.1278 10.7176 22.7934C10.2276 23.4098 9.68027 23.9783 9.08296 24.4914C8.86447 24.6884 8.50222 24.7201 8.37204 24.7699Z" fill="#39B980"/>
<path d="M17.9099 28.4751C18.6537 28.5023 19.1246 28.7887 19.3951 29.3343C19.6657 29.8799 19.6566 30.4845 19.2525 30.9825C18.8942 31.4191 18.5033 31.8278 18.0831 32.2051C17.8176 32.4354 17.4814 32.568 17.1302 32.5812C16.7791 32.5944 16.4339 32.4873 16.1519 32.2776C15.561 31.8452 15.2564 30.9735 15.6764 30.3746C16.1406 29.7147 16.7869 29.1758 17.3881 28.62C17.5307 28.4875 17.8092 28.5011 17.9099 28.4751Z" fill="#39B980"/>
</svg>
