<svg width="40" height="40" viewBox="0 0 40 40" fill="none" xmlns="http://www.w3.org/2000/svg">
<path d="M30.323 36H21.8046V29.5966H17.5838V35.9862H9V4H30.323V36ZM11.1586 13.5472H15.3599V7.20459H11.1586V13.5472ZM21.7977 7.21606H17.5941V13.5392H21.7977V7.21606ZM24.0159 7.19885V13.5427H28.2069V7.20459L24.0159 7.19885ZM11.1632 17.8953V24.2128H15.3438V17.8953H11.1632ZM21.7816 24.2219V17.9034H17.5999V24.2219H21.7816ZM28.2115 17.9068H24.0354V24.2151H28.2172L28.2115 17.9068Z" fill="#39B980"/>
<path d="M11.1572 13.5468V7.2041H15.3585V13.5468H11.1572Z" fill="white"/>
<path d="M21.7983 7.21533V13.5385H17.5947V7.21533H21.7983Z" fill="white"/>
<path d="M24.0146 7.2041H28.2056V13.5479H24.0146V7.2041Z" fill="white"/>
<path d="M11.1631 17.8945H15.3437V24.212H11.1631V17.8945Z" fill="white"/>
<path d="M21.7814 24.2219H17.5996V17.9033H21.7814V24.2219Z" fill="white"/>
<path d="M28.2122 17.9067V24.215H24.0361V17.9067H28.2122Z" fill="white"/>
</svg>
