<svg width="40" height="40" viewBox="0 0 40 40" fill="none" xmlns="http://www.w3.org/2000/svg">
<g clip-path="url(#clip0_494_47)">
<path d="M35.9999 10.8311C35.4537 12.5634 34.1922 13.6357 32.5965 14.3013C28.1705 16.1502 23.719 16.1502 19.3087 14.243C18.5785 13.9103 17.9063 13.4628 17.3176 12.9175C15.5967 11.3673 15.6109 9.30507 17.3176 7.7264C18.5279 6.60285 20.0041 5.96996 21.5842 5.58596C22.6324 5.32996 23.709 5.192 24.7729 5H27.1906C28.2758 5.192 29.3851 5.29724 30.4404 5.59165C32.8411 6.26436 35.0897 7.19307 36.0084 9.83556L35.9999 10.8311Z" fill="#39B980"/>
<path d="M3.99983 23.2046C4.51468 21.4809 5.74916 20.4142 7.32356 19.7415C11.8221 17.8187 16.3447 17.8329 20.8133 19.8212C21.6457 20.2189 22.3962 20.7688 23.0263 21.4425C24.3063 22.7595 24.2693 24.4732 23.0747 25.8628C22.1659 26.918 20.9883 27.5822 19.7012 28.016C15.7019 29.3657 11.7054 29.3586 7.7545 27.7956C6.03076 27.1129 4.62561 26.0533 3.99414 24.2002L3.99983 23.2046Z" fill="#39B980"/>
<path d="M4 25.9067C6.07502 29.3983 9.52818 30.0554 13.1477 30.3071C15.1375 30.4614 17.1383 30.2272 19.0386 29.6173C21.0297 28.9688 22.8444 28.0714 23.8613 26.0433C24.3079 28.1425 23.702 29.6628 21.9556 30.8703C20.2361 32.0593 18.2763 32.5926 16.2439 32.8472C13.6994 33.1909 11.1101 32.9511 8.672 32.146C8.06765 31.9405 7.47958 31.69 6.91271 31.3965C5.54453 30.6939 4.4864 29.6898 4 28.1823V25.9067Z" fill="#39B980"/>
<path d="M4 29.8887C5.6512 32.864 8.5056 33.7472 11.579 34.1696C14.5301 34.5749 17.4386 34.3516 20.219 33.1825C21.7522 32.5383 23.0905 31.6494 23.8812 29.9697C24.1486 31.7817 23.9196 33.302 22.486 34.4611C20.8917 35.7525 19.0258 36.3697 17.0446 36.7153C16.443 36.8206 15.8386 36.9059 15.2356 36.9998H12.8178C11.734 36.8078 10.6247 36.7025 9.56942 36.4081C7.16871 35.7354 4.92018 34.8067 4 32.1642V29.8887Z" fill="#39B980"/>
<path d="M35.9999 14.8136C35.4311 16.6624 34.0344 17.7106 32.3534 18.4203C29.3496 19.6861 26.225 19.9179 23.0293 19.3789C22.8482 19.3382 22.6722 19.2776 22.5045 19.1983C21.0823 18.6294 19.6899 18.0022 18.2535 17.4845C17.7933 17.3261 17.3768 17.0621 17.0372 16.7136C16.6975 16.365 16.4444 15.9418 16.2979 15.4777C16.0135 14.6457 16.059 13.7085 16.0575 12.794C17.4542 15.1677 19.7326 16.0523 22.1631 16.597C25.2008 17.3007 28.373 17.16 31.3365 16.1903C33.3276 15.5417 35.0129 14.4836 35.9999 12.5352V14.8136Z" fill="#39B980"/>
<path d="M36.0002 18.7957C35.3389 20.9447 33.6365 21.9545 31.7008 22.6813C29.7231 23.4086 27.6187 23.7288 25.5142 23.6228L24.5527 20.9362C25.5668 20.9362 26.6206 20.9917 27.666 20.9248C29.6098 20.8125 31.5066 20.2823 33.2269 19.3703C34.4203 18.7279 35.3882 17.7352 36.0002 16.5259V18.7957Z" fill="#39B980"/>
<path d="M36.0003 26.76C35.3945 28.8691 33.7504 29.8746 31.8759 30.6128C29.8037 31.4291 27.6462 31.705 25.3877 31.5955V29.1607C26.881 28.9758 28.3744 28.9033 29.808 28.5804C31.0126 28.3102 32.1845 27.821 33.3123 27.3004C34.5497 26.7315 35.3973 25.7033 36.0017 24.4858L36.0003 26.76Z" fill="#39B980"/>
<path d="M36.0001 22.778C35.3758 24.8772 33.7331 25.8884 31.8515 26.618C29.7936 27.4244 27.6503 27.7088 25.3975 27.6092V25.1218C26.5751 25.008 27.7854 24.9881 28.953 24.7492C30.2201 24.4793 31.4626 24.1049 32.6679 23.6299C34.174 23.0453 35.2748 21.9545 36.003 20.501L36.0001 22.778Z" fill="#39B980"/>
<path d="M36.0004 9.83556C35.0816 7.19307 32.8331 6.26436 30.4324 5.59165C29.3771 5.29724 28.2678 5.192 27.1826 5H36.0004V9.83556Z" fill="white"/>
<path d="M4 32.1646C4.92018 34.807 7.16871 35.7358 9.56942 36.4085C10.6247 36.7029 11.734 36.8081 12.8178 37.0001H4V32.1646Z" fill="white"/>
</g>
<defs>
<clipPath id="clip0_494_47">
<rect width="32" height="32" fill="white" transform="translate(4 5)"/>
</clipPath>
</defs>
</svg>
